<svg width="354" height="85" viewBox="0 0 354 85" fill="none" xmlns="http://www.w3.org/2000/svg">
<path d="M29.422 62.106C27.2642 66.1902 22.6858 68.9068 16.6813 68.9068C7.05545 68.9068 2.08301 64.3355 2.08301 57.3849V56.6729C2.08301 49.2352 6.73646 45.0761 17.5632 45.0761C20.8469 45.0761 24.0556 45.4695 27.2642 46.2751V39.9427C27.2642 34.903 24.4496 32.4113 18.3701 32.4113C12.0279 32.4113 9.79498 34.8843 9.79498 38.8936V39.4556C9.79498 40.2612 9.40093 40.7296 8.42521 40.7296H4.89759C4.01569 40.7296 3.52783 40.2425 3.52783 39.3619V38.8748C3.52783 31.6619 8.33139 27.3529 18.3513 27.3529C28.5401 27.3529 33.9066 32.149 33.9066 40.3174V57.9282L39.123 63.1365C40.2488 64.2606 40.3989 65.5345 39.2919 66.6586L38.4099 67.5391C37.2841 68.6632 35.9331 68.5883 34.8073 67.4642L29.422 62.106ZM17.6383 63.9421C23.3238 63.9421 27.2642 60.6635 27.2642 55.9423V50.6591C23.9805 49.8535 21.2597 49.46 18.2012 49.46C11.54 49.46 8.57532 51.8581 8.57532 56.3357V57.1413C8.57532 61.3754 11.465 63.9421 17.6383 63.9421Z" fill="url(#paint0_linear)"/>
<path d="M53.6274 53.8627C53.6274 60.5136 57.155 63.7922 63.7223 63.7922C69.8957 63.7922 73.1043 61.0756 73.1043 55.6238V53.9377C73.1043 53.0571 73.6672 52.4951 74.5491 52.4951H78.0767C79.0337 52.4951 79.5216 53.1321 79.5216 54.0126V55.5301C79.5216 64.2606 73.6672 68.8881 63.7223 68.8881C53.1395 68.8881 46.8911 63.2863 46.8911 53.3569V42.8654C46.8911 32.9359 53.1395 27.3342 63.7223 27.3342C73.6672 27.3342 79.5216 31.9804 79.5216 40.6921V41.8911C79.5216 42.7717 79.0337 43.3337 78.0767 43.3337H74.5491C73.6672 43.3337 73.1043 42.7717 73.1043 41.8911V40.6546C73.1043 35.2028 69.8957 32.4863 63.7223 32.4863C57.155 32.4863 53.6274 35.7648 53.6274 42.322V53.8627Z" fill="url(#paint1_linear)"/>
<path d="M105.322 68.0262H88.0027C87.0458 68.0262 86.314 67.3893 86.314 66.5087V64.579C86.314 63.6236 87.027 63.0615 88.0027 63.0615H93.0502V38.5751L87.5899 33.1232C86.4641 31.9991 86.389 30.6502 87.4398 29.6011L88.3217 28.7205C89.4475 27.5964 90.8924 27.7651 91.9244 28.7955L98.0226 34.8843C100.03 30.0882 103.952 27.4466 109.168 27.4466H110.763C113.09 27.4466 114.291 28.4957 114.291 30.4067V30.8001C114.291 32.5612 113.015 33.5167 111.157 33.5167H109.225C103.37 33.5167 99.7677 37.1887 99.7677 43.7646V63.0615H105.303C106.26 63.0615 106.992 63.6236 106.992 64.579V66.5087C107.011 67.3893 106.279 68.0262 105.322 68.0262Z" fill="url(#paint2_linear)"/>
<path d="M136.827 68.9067C126 68.9067 119.827 63.6985 119.827 54.1062V42.4157C119.827 32.5799 126.169 27.3716 136.339 27.3716C146.753 27.3716 152.776 32.4113 152.776 42.0972V47.7739C152.776 49.5349 151.969 50.3405 150.299 50.3405H126.488V54.5746C126.488 61.0569 130.015 63.942 136.827 63.942C143.563 63.942 146.04 61.469 146.04 57.3848V56.8977C146.04 56.1858 146.359 55.8486 147.166 55.8486H151.256C151.894 55.8486 152.307 56.242 152.307 56.8977V57.4598C152.307 64.579 147.335 68.9067 136.827 68.9067ZM126.488 45.5257H146.359V41.6101C146.359 35.2028 142.906 32.2427 136.339 32.2427C129.997 32.2427 126.488 35.3714 126.488 41.6101V45.5257Z" fill="url(#paint3_linear)"/>
<path d="M190.604 61.7875C188.446 66.4338 183.943 68.9068 177.863 68.9068C168.331 68.9068 161.914 63.38 161.914 53.4505V42.7154C161.914 32.786 168.331 27.3529 177.469 27.3529C182.273 27.3529 186.044 29.039 188.446 32.149V16.955H183.324C182.367 16.955 181.729 16.393 181.729 15.4375V13.5078C181.729 12.6273 182.367 11.9903 183.324 11.9903H192.631C194.319 11.9903 195.201 12.7022 195.201 14.4633V57.7033L200.662 63.1552C201.712 64.2043 201.862 65.5532 200.737 66.6773L199.855 67.5579C198.729 68.6819 197.378 68.5133 196.327 67.4829L190.604 61.7875ZM168.65 42.2471V53.9376C168.65 60.3449 172.009 63.6985 178.595 63.6985C185.012 63.6985 188.465 60.3449 188.465 53.9376V42.2471C188.465 35.7648 185.012 32.4862 178.595 32.4862C172.009 32.4862 168.65 35.7648 168.65 42.2471Z" fill="url(#paint4_linear)"/>
<path d="M208.486 68.0262C207.529 68.0262 206.797 67.3893 206.797 66.4338V64.5041C206.797 63.6236 207.51 62.9866 208.486 62.9866H213.702V33.2169H208.486C207.529 33.2169 206.797 32.5799 206.797 31.6994V29.7697C206.797 28.8892 207.51 28.2522 208.486 28.2522H217.868C219.557 28.2522 220.439 28.9641 220.439 30.7252V62.9866H225.73C226.687 62.9866 227.419 63.6236 227.419 64.5041V66.4338C227.419 67.3893 226.706 68.0262 225.73 68.0262H208.486ZM215.448 21.5264C213.609 21.5264 212.483 20.4023 212.483 18.4913V14.8005C212.483 12.8709 213.609 11.7655 215.448 11.7655H217.455C219.294 11.7655 220.42 12.8896 220.42 14.8005V18.4913C220.42 20.421 219.294 21.5264 217.455 21.5264H215.448Z" fill="url(#paint5_linear)"/>
<path d="M250.48 68.0263C242.149 68.0263 239.015 64.9912 239.015 56.9727V33.2169H233.011C231.96 33.2169 231.322 32.5799 231.322 31.6994V29.8634C231.322 28.9079 231.96 28.2709 233.011 28.2709H239.015V18.9784C239.015 17.4609 239.972 16.4118 241.586 16.4118H243.181C244.7 16.4118 245.657 17.4609 245.657 18.9784V28.2709H255.358C256.315 28.2709 256.953 28.9079 256.953 29.8634V31.6994C256.953 32.5799 256.315 33.2169 255.358 33.2169H245.657V56.9165C245.657 61.1506 247.027 62.9117 250.874 62.9117H255.358C256.315 62.9117 256.953 63.4737 256.953 64.5041V66.2652C256.953 67.3893 256.315 68.0263 255.264 68.0263H250.48Z" fill="url(#paint6_linear)"/>
<path d="M289.753 62.106C287.595 66.1902 283.016 68.9068 277.012 68.9068C267.386 68.9068 262.414 64.3355 262.414 57.3849V56.6729C262.414 49.2352 267.067 45.0761 277.894 45.0761C281.177 45.0761 284.386 45.4695 287.595 46.2751V39.9427C287.595 34.903 284.78 32.4113 278.701 32.4113C272.358 32.4113 270.126 34.8843 270.126 38.8936V39.4556C270.126 40.2612 269.731 40.7296 268.756 40.7296H265.228C264.346 40.7296 263.858 40.2425 263.858 39.3619V38.8748C263.858 31.6619 268.662 27.3529 278.682 27.3529C288.871 27.3529 294.237 32.149 294.237 40.3174V57.9282L299.454 63.1365C300.579 64.2606 300.729 65.5345 299.622 66.6586L298.741 67.5391C297.615 68.6632 296.264 68.5883 295.138 67.4642L289.753 62.106ZM277.969 63.9421C283.654 63.9421 287.595 60.6635 287.595 55.9423V50.6591C284.311 49.8535 281.59 49.46 278.532 49.46C271.871 49.46 268.906 51.8581 268.906 56.3357V57.1413C268.906 61.3754 271.796 63.9421 277.969 63.9421Z" fill="url(#paint7_linear)"/>
<path d="M29.422 62.106C27.2642 66.1902 22.6858 68.9068 16.6813 68.9068C7.05545 68.9068 2.08301 64.3355 2.08301 57.3849V56.6729C2.08301 49.2352 6.73646 45.0761 17.5632 45.0761C20.8469 45.0761 24.0556 45.4695 27.2642 46.2751V39.9427C27.2642 34.903 24.4496 32.4113 18.3701 32.4113C12.0279 32.4113 9.79498 34.8843 9.79498 38.8936V39.4556C9.79498 40.2612 9.40093 40.7296 8.42521 40.7296H4.89759C4.01569 40.7296 3.52783 40.2425 3.52783 39.3619V38.8748C3.52783 31.6619 8.33139 27.3529 18.3513 27.3529C28.5401 27.3529 33.9066 32.149 33.9066 40.3174V57.9282L39.123 63.1365C40.2488 64.2606 40.3989 65.5345 39.2919 66.6586L38.4099 67.5391C37.2841 68.6632 35.9331 68.5883 34.8073 67.4642L29.422 62.106ZM17.6383 63.9421C23.3238 63.9421 27.2642 60.6635 27.2642 55.9423V50.6591C23.9805 49.8535 21.2597 49.46 18.2012 49.46C11.54 49.46 8.57532 51.8581 8.57532 56.3357V57.1413C8.57532 61.3754 11.465 63.9421 17.6383 63.9421Z" fill="url(#paint8_linear)"/>
<path d="M53.6274 53.8627C53.6274 60.5136 57.155 63.7922 63.7223 63.7922C69.8957 63.7922 73.1043 61.0756 73.1043 55.6238V53.9377C73.1043 53.0571 73.6672 52.4951 74.5491 52.4951H78.0767C79.0337 52.4951 79.5216 53.1321 79.5216 54.0126V55.5301C79.5216 64.2606 73.6672 68.8881 63.7223 68.8881C53.1395 68.8881 46.8911 63.2863 46.8911 53.3569V42.8654C46.8911 32.9359 53.1395 27.3342 63.7223 27.3342C73.6672 27.3342 79.5216 31.9804 79.5216 40.6921V41.8911C79.5216 42.7717 79.0337 43.3337 78.0767 43.3337H74.5491C73.6672 43.3337 73.1043 42.7717 73.1043 41.8911V40.6546C73.1043 35.2028 69.8957 32.4863 63.7223 32.4863C57.155 32.4863 53.6274 35.7648 53.6274 42.322V53.8627Z" fill="url(#paint9_linear)"/>
<path d="M105.322 68.0262H88.0027C87.0458 68.0262 86.314 67.3893 86.314 66.5087V64.579C86.314 63.6236 87.027 63.0615 88.0027 63.0615H93.0502V38.5751L87.5899 33.1232C86.4641 31.9991 86.389 30.6502 87.4398 29.6011L88.3217 28.7205C89.4475 27.5964 90.8924 27.7651 91.9244 28.7955L98.0226 34.8843C100.03 30.0882 103.952 27.4466 109.168 27.4466H110.763C113.09 27.4466 114.291 28.4957 114.291 30.4067V30.8001C114.291 32.5612 113.015 33.5167 111.157 33.5167H109.225C103.37 33.5167 99.7677 37.1887 99.7677 43.7646V63.0615H105.303C106.26 63.0615 106.992 63.6236 106.992 64.579V66.5087C107.011 67.3893 106.279 68.0262 105.322 68.0262Z" fill="url(#paint10_linear)"/>
<path d="M136.827 68.9067C126 68.9067 119.827 63.6985 119.827 54.1062V42.4157C119.827 32.5799 126.169 27.3716 136.339 27.3716C146.753 27.3716 152.776 32.4113 152.776 42.0972V47.7739C152.776 49.5349 151.969 50.3405 150.299 50.3405H126.488V54.5746C126.488 61.0569 130.015 63.942 136.827 63.942C143.563 63.942 146.04 61.469 146.04 57.3848V56.8977C146.04 56.1858 146.359 55.8486 147.166 55.8486H151.256C151.894 55.8486 152.307 56.242 152.307 56.8977V57.4598C152.307 64.579 147.335 68.9067 136.827 68.9067ZM126.488 45.5257H146.359V41.6101C146.359 35.2028 142.906 32.2427 136.339 32.2427C129.997 32.2427 126.488 35.3714 126.488 41.6101V45.5257Z" fill="url(#paint11_linear)"/>
<path d="M190.604 61.7875C188.446 66.4338 183.943 68.9068 177.863 68.9068C168.331 68.9068 161.914 63.38 161.914 53.4505V42.7154C161.914 32.786 168.331 27.3529 177.469 27.3529C182.273 27.3529 186.044 29.039 188.446 32.149V16.955H183.324C182.367 16.955 181.729 16.393 181.729 15.4375V13.5078C181.729 12.6273 182.367 11.9903 183.324 11.9903H192.631C194.319 11.9903 195.201 12.7022 195.201 14.4633V57.7033L200.662 63.1552C201.712 64.2043 201.862 65.5532 200.737 66.6773L199.855 67.5579C198.729 68.6819 197.378 68.5133 196.327 67.4829L190.604 61.7875ZM168.65 42.2471V53.9376C168.65 60.3449 172.009 63.6985 178.595 63.6985C185.012 63.6985 188.465 60.3449 188.465 53.9376V42.2471C188.465 35.7648 185.012 32.4862 178.595 32.4862C172.009 32.4862 168.65 35.7648 168.65 42.2471Z" fill="url(#paint12_linear)"/>
<path d="M208.486 68.0262C207.529 68.0262 206.797 67.3893 206.797 66.4338V64.5041C206.797 63.6236 207.51 62.9866 208.486 62.9866H213.702V33.2169H208.486C207.529 33.2169 206.797 32.5799 206.797 31.6994V29.7697C206.797 28.8892 207.51 28.2522 208.486 28.2522H217.868C219.557 28.2522 220.439 28.9641 220.439 30.7252V62.9866H225.73C226.687 62.9866 227.419 63.6236 227.419 64.5041V66.4338C227.419 67.3893 226.706 68.0262 225.73 68.0262H208.486ZM215.448 21.5264C213.609 21.5264 212.483 20.4023 212.483 18.4913V14.8005C212.483 12.8709 213.609 11.7655 215.448 11.7655H217.455C219.294 11.7655 220.42 12.8896 220.42 14.8005V18.4913C220.42 20.421 219.294 21.5264 217.455 21.5264H215.448Z" fill="url(#paint13_linear)"/>
<path d="M250.48 68.0263C242.149 68.0263 239.015 64.9912 239.015 56.9727V33.2169H233.011C231.96 33.2169 231.322 32.5799 231.322 31.6994V29.8634C231.322 28.9079 231.96 28.2709 233.011 28.2709H239.015V18.9784C239.015 17.4609 239.972 16.4118 241.586 16.4118H243.181C244.7 16.4118 245.657 17.4609 245.657 18.9784V28.2709H255.358C256.315 28.2709 256.953 28.9079 256.953 29.8634V31.6994C256.953 32.5799 256.315 33.2169 255.358 33.2169H245.657V56.9165C245.657 61.1506 247.027 62.9117 250.874 62.9117H255.358C256.315 62.9117 256.953 63.4737 256.953 64.5041V66.2652C256.953 67.3893 256.315 68.0263 255.264 68.0263H250.48Z" fill="url(#paint14_linear)"/>
<path d="M289.753 62.106C287.595 66.1902 283.016 68.9068 277.012 68.9068C267.386 68.9068 262.414 64.3355 262.414 57.3849V56.6729C262.414 49.2352 267.067 45.0761 277.894 45.0761C281.177 45.0761 284.386 45.4695 287.595 46.2751V39.9427C287.595 34.903 284.78 32.4113 278.701 32.4113C272.358 32.4113 270.126 34.8843 270.126 38.8936V39.4556C270.126 40.2612 269.731 40.7296 268.756 40.7296H265.228C264.346 40.7296 263.858 40.2425 263.858 39.3619V38.8748C263.858 31.6619 268.662 27.3529 278.682 27.3529C288.871 27.3529 294.237 32.149 294.237 40.3174V57.9282L299.454 63.1365C300.579 64.2606 300.729 65.5345 299.622 66.6586L298.741 67.5391C297.615 68.6632 296.264 68.5883 295.138 67.4642L289.753 62.106ZM277.969 63.9421C283.654 63.9421 287.595 60.6635 287.595 55.9423V50.6591C284.311 49.8535 281.59 49.46 278.532 49.46C271.871 49.46 268.906 51.8581 268.906 56.3357V57.1413C268.906 61.3754 271.796 63.9421 277.969 63.9421Z" fill="url(#paint15_linear)"/>
<path d="M327.261 74.8457C342.018 74.8457 353.981 62.9014 353.981 48.1673C353.981 33.4332 342.018 21.4889 327.261 21.4889C312.504 21.4889 300.542 33.4332 300.542 48.1673C300.542 62.9014 312.504 74.8457 327.261 74.8457Z" fill="#17D1CE"/>
<path d="M341.766 56.1858C341.766 62.5744 338.314 66.8272 330.377 67.689V72.7849C330.377 74.5647 329.138 75.8574 327.299 75.8574H326.924C325.085 75.8574 323.847 74.5647 323.847 72.7849V67.7452C315.666 66.9396 312.457 63.0802 312.457 57.2912V56.1296C312.457 55.2116 313.02 54.6495 313.939 54.6495H318.311C319.174 54.6495 319.662 55.1367 319.662 55.9985V57.16C319.662 60.6072 321.501 62.2559 327.055 62.2559C332.234 62.2559 334.505 60.7196 334.505 57.16V55.9235C334.505 53.0946 333.154 52.3639 330.377 51.8581L322.195 50.3218C315.985 49.1602 312.72 46.8746 312.72 40.1113V39.1558C312.72 32.8234 316.041 28.5894 323.865 27.7276V23.2312C323.865 21.4514 325.104 20.1587 326.943 20.1587H327.318C329.157 20.1587 330.395 21.4514 330.395 23.2312V27.7276C338.332 28.5332 341.353 32.3363 341.353 38.0505V39.0434C341.353 40.0176 340.79 40.5797 339.946 40.5797H335.63C334.636 40.5797 334.148 40.0176 334.148 39.1746V38.1816C334.148 34.8093 332.422 33.1419 327.074 33.1419C321.97 33.1419 319.925 34.6782 319.925 38.2378V39.3994C319.925 42.2283 321.276 42.959 323.997 43.4648L332.253 45.0011C338.407 46.1627 341.804 48.4483 341.804 55.1367V56.1858H341.766Z" fill="white"/>
<defs>
<linearGradient id="paint0_linear" x1="10.338" y1="56.5911" x2="306.609" y2="35.3581" gradientUnits="userSpaceOnUse">
<stop stop-color="#169BC7"/>
<stop offset="0.2593" stop-color="#16A0C8"/>
<stop offset="0.5485" stop-color="#16ADC9"/>
<stop offset="0.8511" stop-color="#17C3CC"/>
<stop offset="1" stop-color="#17D1CE"/>
</linearGradient>
<linearGradient id="paint1_linear" x1="10.3379" y1="56.5911" x2="306.609" y2="35.3581" gradientUnits="userSpaceOnUse">
<stop stop-color="#169BC7"/>
<stop offset="0.2593" stop-color="#16A0C8"/>
<stop offset="0.5485" stop-color="#16ADC9"/>
<stop offset="0.8511" stop-color="#17C3CC"/>
<stop offset="1" stop-color="#17D1CE"/>
</linearGradient>
<linearGradient id="paint2_linear" x1="10.3378" y1="56.5911" x2="306.609" y2="35.3581" gradientUnits="userSpaceOnUse">
<stop stop-color="#169BC7"/>
<stop offset="0.2593" stop-color="#16A0C8"/>
<stop offset="0.5485" stop-color="#16ADC9"/>
<stop offset="0.8511" stop-color="#17C3CC"/>
<stop offset="1" stop-color="#17D1CE"/>
</linearGradient>
<linearGradient id="paint3_linear" x1="10.3382" y1="56.591" x2="306.609" y2="35.3581" gradientUnits="userSpaceOnUse">
<stop stop-color="#169BC7"/>
<stop offset="0.2593" stop-color="#16A0C8"/>
<stop offset="0.5485" stop-color="#16ADC9"/>
<stop offset="0.8511" stop-color="#17C3CC"/>
<stop offset="1" stop-color="#17D1CE"/>
</linearGradient>
<linearGradient id="paint4_linear" x1="10.3381" y1="56.591" x2="306.609" y2="35.3581" gradientUnits="userSpaceOnUse">
<stop stop-color="#169BC7"/>
<stop offset="0.2593" stop-color="#16A0C8"/>
<stop offset="0.5485" stop-color="#16ADC9"/>
<stop offset="0.8511" stop-color="#17C3CC"/>
<stop offset="1" stop-color="#17D1CE"/>
</linearGradient>
<linearGradient id="paint5_linear" x1="10.3381" y1="56.5911" x2="306.609" y2="35.3581" gradientUnits="userSpaceOnUse">
<stop stop-color="#169BC7"/>
<stop offset="0.2593" stop-color="#16A0C8"/>
<stop offset="0.5485" stop-color="#16ADC9"/>
<stop offset="0.8511" stop-color="#17C3CC"/>
<stop offset="1" stop-color="#17D1CE"/>
</linearGradient>
<linearGradient id="paint6_linear" x1="10.3382" y1="56.5911" x2="306.609" y2="35.3582" gradientUnits="userSpaceOnUse">
<stop stop-color="#169BC7"/>
<stop offset="0.2593" stop-color="#16A0C8"/>
<stop offset="0.5485" stop-color="#16ADC9"/>
<stop offset="0.8511" stop-color="#17C3CC"/>
<stop offset="1" stop-color="#17D1CE"/>
</linearGradient>
<linearGradient id="paint7_linear" x1="10.3382" y1="56.5911" x2="306.609" y2="35.3581" gradientUnits="userSpaceOnUse">
<stop stop-color="#169BC7"/>
<stop offset="0.2593" stop-color="#16A0C8"/>
<stop offset="0.5485" stop-color="#16ADC9"/>
<stop offset="0.8511" stop-color="#17C3CC"/>
<stop offset="1" stop-color="#17D1CE"/>
</linearGradient>
<linearGradient id="paint8_linear" x1="4.86476" y1="69.6296" x2="268.495" y2="31.6996" gradientUnits="userSpaceOnUse">
<stop offset="0.00350697" stop-color="#169BC7"/>
<stop offset="0.2407" stop-color="#16A0C8"/>
<stop offset="0.5053" stop-color="#16ADC9"/>
<stop offset="0.7821" stop-color="#17C3CC"/>
<stop offset="0.9183" stop-color="#17D1CE"/>
</linearGradient>
<linearGradient id="paint9_linear" x1="4.86463" y1="69.6296" x2="268.495" y2="31.6995" gradientUnits="userSpaceOnUse">
<stop offset="0.00350697" stop-color="#169BC7"/>
<stop offset="0.2407" stop-color="#16A0C8"/>
<stop offset="0.5053" stop-color="#16ADC9"/>
<stop offset="0.7821" stop-color="#17C3CC"/>
<stop offset="0.9183" stop-color="#17D1CE"/>
</linearGradient>
<linearGradient id="paint10_linear" x1="4.86452" y1="69.6296" x2="268.495" y2="31.6996" gradientUnits="userSpaceOnUse">
<stop offset="0.00350697" stop-color="#169BC7"/>
<stop offset="0.2407" stop-color="#16A0C8"/>
<stop offset="0.5053" stop-color="#16ADC9"/>
<stop offset="0.7821" stop-color="#17C3CC"/>
<stop offset="0.9183" stop-color="#17D1CE"/>
</linearGradient>
<linearGradient id="paint11_linear" x1="4.86496" y1="69.6295" x2="268.495" y2="31.6996" gradientUnits="userSpaceOnUse">
<stop offset="0.00350697" stop-color="#169BC7"/>
<stop offset="0.2407" stop-color="#16A0C8"/>
<stop offset="0.5053" stop-color="#16ADC9"/>
<stop offset="0.7821" stop-color="#17C3CC"/>
<stop offset="0.9183" stop-color="#17D1CE"/>
</linearGradient>
<linearGradient id="paint12_linear" x1="4.86483" y1="69.6295" x2="268.495" y2="31.6995" gradientUnits="userSpaceOnUse">
<stop offset="0.00350697" stop-color="#169BC7"/>
<stop offset="0.2407" stop-color="#16A0C8"/>
<stop offset="0.5053" stop-color="#16ADC9"/>
<stop offset="0.7821" stop-color="#17C3CC"/>
<stop offset="0.9183" stop-color="#17D1CE"/>
</linearGradient>
<linearGradient id="paint13_linear" x1="4.86488" y1="69.6296" x2="268.495" y2="31.6996" gradientUnits="userSpaceOnUse">
<stop offset="0.00350697" stop-color="#169BC7"/>
<stop offset="0.2407" stop-color="#16A0C8"/>
<stop offset="0.5053" stop-color="#16ADC9"/>
<stop offset="0.7821" stop-color="#17C3CC"/>
<stop offset="0.9183" stop-color="#17D1CE"/>
</linearGradient>
<linearGradient id="paint14_linear" x1="4.86499" y1="69.6296" x2="268.495" y2="31.6997" gradientUnits="userSpaceOnUse">
<stop offset="0.00350697" stop-color="#169BC7"/>
<stop offset="0.2407" stop-color="#16A0C8"/>
<stop offset="0.5053" stop-color="#16ADC9"/>
<stop offset="0.7821" stop-color="#17C3CC"/>
<stop offset="0.9183" stop-color="#17D1CE"/>
</linearGradient>
<linearGradient id="paint15_linear" x1="4.86498" y1="69.6296" x2="268.495" y2="31.6996" gradientUnits="userSpaceOnUse">
<stop offset="0.00350697" stop-color="#169BC7"/>
<stop offset="0.2407" stop-color="#16A0C8"/>
<stop offset="0.5053" stop-color="#16ADC9"/>
<stop offset="0.7821" stop-color="#17C3CC"/>
<stop offset="0.9183" stop-color="#17D1CE"/>
</linearGradient>
</defs>
</svg>
