<svg width="53" height="55" viewBox="0 0 53 55" fill="none" xmlns="http://www.w3.org/2000/svg">
<path d="M16.2688 2.19429C16.8159 1.91106 17.4146 1.7437 17.9875 1.5184C18.5668 1.31242 19.1397 1.08069 19.7448 0.945508C19.1011 1.07425 18.4896 1.31242 17.8652 1.52484C17.2472 1.7437 16.61 1.93681 16.0177 2.23292C15.4191 2.50971 14.814 2.78006 14.2154 3.06973L12.4967 4.07391C10.263 5.50937 8.18386 7.24093 6.43299 9.28791C4.70142 11.3478 3.26596 13.6522 2.16523 16.1176C1.12243 18.6152 0.452978 21.2544 0.131126 23.9322C-0.119919 26.61 -0.0104889 29.3071 0.459415 31.9463C1.00013 34.5662 1.86913 37.1024 3.06642 39.4583C4.32164 41.7821 5.84722 43.9321 7.62384 45.831C9.44552 47.6784 11.4474 49.3199 13.636 50.633C14.1574 50.9999 15.0071 51.4441 15.8439 51.9269C16.6872 52.3968 17.5948 52.7379 18.1806 53.0147C23.0148 54.7978 29.0849 55.1905 34.7109 53.549C37.511 52.7251 40.1888 51.4956 42.5319 49.8992C44.8557 48.2835 46.864 46.3846 48.4991 44.3955C50.0761 42.3486 51.0546 40.2887 51.4923 38.7502C51.7176 37.9778 51.8914 37.3727 51.9686 36.9414C52.0266 36.5102 52.0587 36.2656 52.0587 36.2656C52.3291 35.0296 52.3999 33.7937 51.8206 34.8751C51.5824 35.4287 51.3185 36.2205 50.9323 37.038C50.7263 37.4435 50.5138 37.8619 50.3014 38.2803C50.0954 38.7052 49.8766 39.1172 49.6127 39.4905C49.1106 40.2372 48.6922 40.9517 48.2802 41.3894C47.8811 41.84 47.6043 42.0975 47.5335 42.046C47.5013 42.0203 47.6558 41.7692 47.9133 41.4087C48.0356 41.2221 48.2029 41.0225 48.3446 40.7908C48.4862 40.5526 48.6407 40.3016 48.7952 40.0505C48.7179 40.0055 48.7437 39.7544 48.8209 39.4004C48.8917 39.0399 49.0655 38.5958 49.1685 38.0808C49.4067 37.0702 49.7607 35.9888 49.9216 35.4416C49.9731 35.1584 50.1405 34.5404 50.3336 33.7551C50.398 33.356 50.4688 32.9119 50.546 32.4419C50.6104 31.9785 50.7263 31.5021 50.7327 31.0065C50.9323 29.0561 50.7585 27.1185 50.7198 26.5778C50.5847 24.8913 50.2371 26.6422 49.6513 29.0689C49.4582 29.674 49.2586 30.3306 49.0591 31.0001C48.8016 31.6502 48.5441 32.3196 48.2866 32.9762C48.0098 33.6199 47.6751 34.2186 47.4112 34.7979C47.1473 35.3708 46.7997 35.8536 46.5679 36.2977C46.0658 37.1732 45.9307 37.0895 45.9629 36.8256C45.9629 36.5423 46.0594 36.0403 45.9371 35.9823C45.8406 36.2076 45.744 36.4136 45.6539 36.6132C45.5509 36.8063 45.435 36.9736 45.3256 37.141C45.1067 37.4693 44.9007 37.7718 44.6948 38.0744C44.5017 38.3833 44.2377 38.6473 43.9996 38.9627C43.7485 39.2717 43.5039 39.6192 43.2207 40.0119C43.2014 39.999 42.9375 40.2501 42.5255 40.6749C42.3195 40.8873 42.0749 41.1384 41.8045 41.4216C41.5084 41.6791 41.1866 41.9623 40.839 42.2584C40.6716 42.4065 40.4978 42.561 40.3176 42.7155C40.1245 42.8506 39.9314 42.9923 39.7382 43.1339C39.3456 43.4107 38.9658 43.7196 38.5667 43.9707C37.7428 44.4406 36.9961 44.9556 36.3266 45.2324C36.3266 45.2324 36.1142 45.3482 35.5863 45.6379C35.4512 45.7087 35.3031 45.7988 35.1229 45.8761C34.9362 45.9469 34.7302 46.0241 34.4985 46.1142C34.2668 46.2043 34.0093 46.3009 33.726 46.4103C33.5844 46.4618 33.4364 46.5198 33.2819 46.5777C33.121 46.6163 32.9536 46.6614 32.7798 46.7064C31.8464 46.9446 31.8657 47.0347 31.885 47.1184C31.8657 47.0347 31.8657 47.0347 31.8464 46.9446C31.4023 47.1828 30.6749 47.2665 29.9539 47.3695C29.2394 47.5046 28.5056 47.4789 28.0164 47.5561C28.01 47.466 28.0099 47.466 28.0099 47.3823C27.0508 47.569 26.0788 47.4531 25.1133 47.4145C24.6305 47.3823 24.1606 47.26 23.6778 47.2021C23.2015 47.1313 22.7187 47.0733 22.2552 46.951C22.2745 46.8674 22.2745 46.8674 22.2939 46.7772C21.8304 46.6549 21.3669 46.5326 21.0193 46.4425C20.6782 46.3395 20.4657 46.2108 20.4786 46.1786C20.5044 46.0949 20.5044 46.0949 20.5365 46.0112C20.1117 45.7924 19.4229 45.6057 18.8822 45.374C18.348 45.1229 17.9167 44.9169 17.9617 44.8397C17.9231 44.9169 17.9231 44.9169 17.8845 44.9942C17.6721 44.8912 17.4596 44.7882 17.2537 44.6916C17.0605 44.5693 16.8674 44.4535 16.6743 44.3312C16.2945 44.0994 15.9212 43.8677 15.5607 43.6488C15.226 43.3914 14.8977 43.1403 14.5823 42.8893C14.2669 42.6447 13.945 42.4129 13.6747 42.1361C13.1275 41.5954 12.5482 41.1191 12.104 40.5462C11.8659 40.2694 11.6341 39.999 11.4024 39.7287C11.1642 39.4648 10.9904 39.1493 10.778 38.8661C10.5269 38.467 10.2115 38.1065 9.99267 37.6688C9.7545 37.2504 9.51633 36.8191 9.27172 36.3879C9.04643 35.9501 8.85975 35.4802 8.64089 35.0232C8.40916 34.5726 8.24823 34.0898 8.08731 33.6006C7.70109 32.6415 7.50154 31.6116 7.23762 30.5881C7.16037 30.0667 7.08313 29.5388 6.99945 29.011C6.94795 28.7471 6.92864 28.4832 6.9222 28.2128L6.87715 27.4017C6.7999 25.2453 6.95439 23.0246 7.57235 20.9325C8.15812 18.834 9.0593 16.8386 10.2051 15.0491C10.7716 14.3024 11.2028 13.4205 10.4948 14.0835C11.029 13.2853 11.7371 12.6223 12.3615 11.8949C13.076 11.2512 13.2048 11.0388 13.3399 10.8264C13.4751 10.6139 13.5974 10.3822 14.3892 9.81575C17.4017 7.33749 21.1931 5.86984 25.0875 5.45787C26.066 5.41925 27.0508 5.29695 28.0293 5.39994C28.5185 5.43856 29.0141 5.41281 29.4969 5.4965L30.9517 5.71535C32.8635 6.11445 34.7688 6.6616 36.5004 7.59497L37.1634 7.91039L37.7878 8.29661C38.1998 8.56053 38.6311 8.79226 39.0366 9.07549C39.8155 9.67414 40.6266 10.2277 41.3218 10.9229C42.0813 11.5538 42.6928 12.3198 43.3623 13.0343C43.6648 13.4205 43.9481 13.8196 44.2442 14.2122C44.3858 14.4118 44.5467 14.5985 44.6819 14.8045L45.0488 15.4289C47.1602 18.7439 48.2094 22.6448 48.3317 26.5778C48.2931 24.6145 48.2158 22.8701 47.7717 21.19C47.4241 19.4906 46.7482 17.8685 45.7891 16.1369C45.8663 16.0919 46.0208 16.0082 45.4994 15.1521C43.9674 12.5579 41.6307 10.1698 39.2361 8.54765C36.848 6.8869 34.4599 6.03077 33.0566 5.43856C32.5738 5.27764 32.1103 5.0459 31.3765 4.8013C31.0032 4.70474 30.5655 4.60175 30.0247 4.49232C29.7544 4.44726 29.4647 4.36358 29.1364 4.34427C28.8081 4.32495 28.4541 4.30564 28.0679 4.27989C28.5828 4.31852 29.1042 4.29921 29.6128 4.38932L31.1448 4.62106C31.1641 4.53738 31.1898 4.36358 31.1898 4.36358C29.1429 3.91298 26.7676 3.81643 24.4116 3.99667C22.0492 4.19621 19.7577 4.87854 17.7944 5.65742C17.7944 5.65742 17.7236 5.4965 17.6849 5.41925C17.0477 5.7411 16.3911 6.01146 15.7731 6.37193C15.5092 6.44274 15.432 6.41056 15.5092 6.29469C15.5929 6.17882 15.8246 5.95996 16.2173 5.74754C16.6035 5.51581 17.1185 5.23258 17.7364 4.90429C18.3673 4.62106 19.1075 4.34427 19.9057 4.02885C20.7232 3.79068 21.6051 3.5332 22.5127 3.33365C22.9762 3.25641 23.4397 3.1856 23.9031 3.10835L24.5983 2.99249C24.8301 2.97961 25.0682 2.96674 25.3 2.95386C26.2333 2.90237 27.1409 2.81869 27.9906 2.89593C28.4155 2.91524 28.8275 2.92812 29.2137 2.94743C29.6063 2.95386 29.9668 3.03755 30.308 3.07617C30.3208 2.99249 30.3466 2.81225 30.353 2.72857C29.9861 2.68351 29.6192 2.59339 29.2459 2.58695L28.1323 2.52902L28.1387 2.35522C31.4988 2.50971 34.5371 3.31434 37.3308 4.62106C40.118 5.93421 42.6735 7.76233 44.9522 10.247C44.7656 10.041 44.5274 9.77713 44.2699 9.4939C43.9996 9.2171 43.6777 8.94675 43.3687 8.66352C43.0598 8.38029 42.7443 8.09706 42.4611 7.83958C42.1521 7.60784 41.8689 7.39542 41.6436 7.22806C41.6951 7.15725 41.753 7.08644 40.8454 6.41056C42.7057 7.69796 44.5789 9.4424 46.1688 11.425C47.791 13.3883 48.9818 15.6606 49.9023 17.7269C50.1405 18.2418 50.2242 18.2161 50.1083 17.6496C50.0246 17.0703 49.6127 15.9953 48.8531 14.4375C48.3961 13.7037 48.0163 13.0021 47.5721 12.3841C47.1151 11.779 46.6902 11.1933 46.2461 10.6268C45.7633 10.0925 45.2741 9.55827 44.7656 8.99825C44.2184 8.47685 43.6198 7.94901 42.9825 7.36324L43.0919 7.22806C43.5168 7.62072 43.9996 8.06487 44.5081 8.53478C45.0231 8.99825 45.4672 9.57758 45.9629 10.1054C46.4714 10.6268 46.864 11.2383 47.2889 11.779C47.4949 12.0558 47.7009 12.3198 47.894 12.5772C48.0678 12.8476 48.2351 13.1051 48.3961 13.3497C48.7372 13.826 48.4926 13.2918 48.2416 12.7575C48.0098 12.2103 47.6622 11.7276 48.0678 12.1653C48.4025 12.648 48.6922 13.1694 49.014 13.6651L49.4968 14.4118C49.6384 14.6693 49.7865 14.9268 49.9281 15.1907C49.574 14.3732 49.0333 13.575 48.5119 12.7189C48.2673 12.2811 47.939 11.8885 47.6365 11.4829C47.3211 11.0774 47.0185 10.659 46.6967 10.2599C45.3256 8.71502 43.8579 7.24737 42.4418 6.17882C41.9912 5.79904 41.5599 5.38063 41.2059 5.11027C40.8583 4.83348 40.633 4.62106 40.678 4.54381C38.1097 3.00536 35.5992 1.95612 33.2819 1.31242C32.9922 1.2223 32.709 1.13862 32.4322 1.0485C32.1554 0.958382 31.8657 0.91976 31.5889 0.855389C31.0354 0.733085 30.5011 0.610781 29.9797 0.494915C28.9369 0.301803 27.9456 0.185937 27.0315 0.0250107C26.729 -0.00717448 26.111 -0.00717448 25.3064 0.0185737C24.9009 0.0443218 24.4503 0.0185737 23.9675 0.102255C23.4847 0.173063 22.9697 0.250307 22.4355 0.327552C22.1716 0.372611 21.9012 0.411233 21.6244 0.456292C21.354 0.5271 21.0837 0.597907 20.8133 0.662278C20.2662 0.803893 19.719 0.951945 19.1783 1.09356C18.6505 1.2738 18.1355 1.47334 17.6463 1.65358C17.1571 1.83382 16.6743 1.98187 16.2688 2.19429Z" fill="#A0A0A0"/>
<path fill-rule="evenodd" clip-rule="evenodd" d="M23.6069 26.6808V39.4325C23.6069 39.6128 23.7549 39.7673 23.9416 39.7673H28.6793C28.8595 39.7673 29.014 39.6192 29.014 39.4325V26.4748H32.4449C32.6187 26.4748 32.7603 26.3396 32.7732 26.1722L33.1015 22.265C33.1208 22.0718 32.9663 21.9045 32.7732 21.9045H29.0076V19.1366C29.0076 18.4864 29.5354 17.9586 30.1855 17.9586H32.8312C33.0114 17.9586 33.1659 17.8105 33.1659 17.6238V13.7166C33.1659 13.5363 33.0178 13.3818 32.8312 13.3818H28.3574C25.7311 13.3818 23.6069 15.5061 23.6069 18.1324V21.898H21.238C21.0578 21.898 20.9033 22.0461 20.9033 22.2328V26.1401C20.9033 26.3203 21.0514 26.4748 21.238 26.4748H23.6069V26.6808Z" fill="#A0A0A0"/>
</svg>
