<svg width="53" height="55" viewBox="0 0 53 55" fill="none" xmlns="http://www.w3.org/2000/svg">
<path d="M16.5305 2.19429C17.0777 1.91106 17.6763 1.7437 18.2492 1.5184C18.8285 1.31242 19.4014 1.08069 20.0065 0.945508C19.3628 1.07425 18.7513 1.31242 18.1269 1.52484C17.5089 1.7437 16.8717 1.93681 16.2795 2.23292C15.6808 2.50971 15.0757 2.78006 14.4771 3.06973L12.7584 4.07391C10.5247 5.50937 8.44558 7.24093 6.69471 9.28791C4.96314 11.3478 3.52768 13.6522 2.42695 16.1176C1.38415 18.6152 0.714697 21.2544 0.392845 23.9322C0.1418 26.61 0.25123 29.3071 0.721134 31.9463C1.26185 34.5662 2.13085 37.1024 3.32814 39.4583C4.58336 41.7821 6.10894 43.9321 7.88556 45.831C9.70724 47.6784 11.7092 49.3199 13.8978 50.633C14.4192 50.9999 15.2688 51.4441 16.1057 51.9269C16.9489 52.3968 17.8565 52.7379 18.4423 53.0147C23.2765 54.7978 29.3467 55.1905 34.9726 53.549C37.7727 52.7251 40.4506 51.4956 42.7936 49.8992C45.1174 48.2835 47.1258 46.3846 48.7608 44.3955C50.3378 42.3486 51.3163 40.2887 51.754 38.7502C51.9793 37.9778 52.1531 37.3727 52.2303 36.9414C52.2883 36.5102 52.3205 36.2656 52.3205 36.2656C52.5908 35.0296 52.6616 33.7937 52.0823 34.8751C51.8441 35.4287 51.5802 36.2205 51.194 37.038C50.988 37.4435 50.7756 37.8619 50.5631 38.2803C50.3572 38.7052 50.1383 39.1172 49.8744 39.4905C49.3723 40.2372 48.9539 40.9517 48.5419 41.3894C48.1428 41.84 47.866 42.0975 47.7952 42.046C47.763 42.0203 47.9175 41.7692 48.175 41.4087C48.2973 41.2221 48.4647 41.0225 48.6063 40.7908C48.7479 40.5526 48.9024 40.3016 49.0569 40.0505C48.9796 40.0055 49.0054 39.7544 49.0826 39.4004C49.1534 39.0399 49.3272 38.5958 49.4302 38.0808C49.6684 37.0702 50.0224 35.9888 50.1834 35.4416C50.2349 35.1584 50.4022 34.5404 50.5953 33.7551C50.6597 33.356 50.7305 32.9119 50.8078 32.4419C50.8721 31.9785 50.988 31.5021 50.9944 31.0065C51.194 29.0561 51.0202 27.1185 50.9816 26.5778C50.8464 24.8913 50.4988 26.6422 49.913 29.0689C49.7199 29.674 49.5203 30.3306 49.3208 31.0001C49.0633 31.6502 48.8058 32.3196 48.5484 32.9762C48.2716 33.6199 47.9368 34.2186 47.6729 34.7979C47.409 35.3708 47.0614 35.8536 46.8297 36.2977C46.3276 37.1732 46.1924 37.0895 46.2246 36.8256C46.2246 36.5423 46.3211 36.0403 46.1988 35.9823C46.1023 36.2076 46.0057 36.4136 45.9156 36.6132C45.8126 36.8063 45.6967 36.9736 45.5873 37.141C45.3685 37.4693 45.1625 37.7718 44.9565 38.0744C44.7634 38.3833 44.4995 38.6473 44.2613 38.9627C44.0102 39.2717 43.7656 39.6192 43.4824 40.0119C43.4631 39.999 43.1992 40.2501 42.7872 40.6749C42.5812 40.8873 42.3366 41.1384 42.0663 41.4216C41.7701 41.6791 41.4483 41.9623 41.1007 42.2584C40.9333 42.4065 40.7595 42.561 40.5793 42.7155C40.3862 42.8506 40.1931 42.9923 40 43.1339C39.6073 43.4107 39.2275 43.7196 38.8284 43.9707C38.0045 44.4406 37.2578 44.9556 36.5883 45.2324C36.5883 45.2324 36.3759 45.3482 35.8481 45.6379C35.7129 45.7087 35.5648 45.7988 35.3846 45.8761C35.1979 45.9469 34.9919 46.0241 34.7602 46.1142C34.5285 46.2043 34.271 46.3009 33.9878 46.4103C33.8461 46.4618 33.6981 46.5198 33.5436 46.5777C33.3827 46.6163 33.2153 46.6614 33.0415 46.7064C32.1081 46.9446 32.1275 47.0347 32.1468 47.1184C32.1275 47.0347 32.1275 47.0347 32.1081 46.9446C31.664 47.1828 30.9366 47.2665 30.2157 47.3695C29.5011 47.5046 28.7673 47.4789 28.2781 47.5561C28.2717 47.466 28.2717 47.466 28.2717 47.3823C27.3125 47.569 26.3406 47.4531 25.375 47.4145C24.8922 47.3823 24.4223 47.26 23.9395 47.2021C23.4632 47.1313 22.9804 47.0733 22.517 46.951C22.5363 46.8674 22.5363 46.8674 22.5556 46.7772C22.0921 46.6549 21.6286 46.5326 21.281 46.4425C20.9399 46.3395 20.7275 46.2108 20.7403 46.1786C20.7661 46.0949 20.7661 46.0949 20.7983 46.0112C20.3734 45.7924 19.6847 45.6057 19.1439 45.374C18.6097 45.1229 18.1784 44.9169 18.2234 44.8397C18.1848 44.9169 18.1848 44.9169 18.1462 44.9942C17.9338 44.8912 17.7214 44.7882 17.5154 44.6916C17.3223 44.5693 17.1292 44.4535 16.936 44.3312C16.5563 44.0994 16.1829 43.8677 15.8224 43.6488C15.4877 43.3914 15.1594 43.1403 14.844 42.8893C14.5286 42.6447 14.2067 42.4129 13.9364 42.1361C13.3892 41.5954 12.8099 41.1191 12.3657 40.5462C12.1276 40.2694 11.8958 39.999 11.6641 39.7287C11.4259 39.4648 11.2521 39.1493 11.0397 38.8661C10.7887 38.467 10.4733 38.1065 10.2544 37.6688C10.0162 37.2504 9.77805 36.8191 9.53344 36.3879C9.30815 35.9501 9.12147 35.4802 8.90261 35.0232C8.67088 34.5726 8.50995 34.0898 8.34903 33.6006C7.96281 32.6415 7.76326 31.6116 7.49934 30.5881C7.42209 30.0667 7.34485 29.5388 7.26117 29.011C7.20967 28.7471 7.19036 28.4832 7.18392 28.2128L7.13886 27.4017C7.06162 25.2453 7.21611 23.0246 7.83406 20.9325C8.41984 18.834 9.32102 16.8386 10.4668 15.0491C11.0333 14.3024 11.4646 13.4205 10.7565 14.0835C11.2908 13.2853 11.9988 12.6223 12.6232 11.8949C13.3377 11.2512 13.4665 11.0388 13.6017 10.8264C13.7368 10.6139 13.8591 10.3822 14.6509 9.81575C17.6634 7.33749 21.4548 5.86984 25.3493 5.45787C26.3277 5.41925 27.3126 5.29695 28.291 5.39994C28.7802 5.43856 29.2758 5.41281 29.7586 5.4965L31.2134 5.71535C33.1252 6.11445 35.0306 6.6616 36.7621 7.59497L37.4251 7.91039L38.0495 8.29661C38.4615 8.56053 38.8928 8.79226 39.2983 9.07549C40.0772 9.67414 40.8883 10.2277 41.5835 10.9229C42.343 11.5538 42.9546 12.3198 43.624 13.0343C43.9266 13.4205 44.2098 13.8196 44.5059 14.2122C44.6475 14.4118 44.8084 14.5985 44.9436 14.8045L45.3105 15.4289C47.4219 18.7439 48.4711 22.6448 48.5934 26.5778C48.5548 24.6145 48.4775 22.8701 48.0334 21.19C47.6858 19.4906 47.0099 17.8685 46.0508 16.1369C46.128 16.0919 46.2825 16.0082 45.7611 15.1521C44.2291 12.5579 41.8924 10.1698 39.4979 8.54765C37.1097 6.8869 34.7216 6.03077 33.3183 5.43856C32.8355 5.27764 32.3721 5.0459 31.6382 4.8013C31.2649 4.70474 30.8272 4.60175 30.2865 4.49232C30.0161 4.44726 29.7264 4.36358 29.3981 4.34427C29.0699 4.32495 28.7158 4.30564 28.3296 4.27989C28.8446 4.31852 29.366 4.29921 29.8745 4.38932L31.4065 4.62106C31.4258 4.53738 31.4516 4.36358 31.4516 4.36358C29.4046 3.91298 27.0293 3.81643 24.6734 3.99667C22.311 4.19621 20.0194 4.87854 18.0561 5.65742C18.0561 5.65742 17.9853 5.4965 17.9467 5.41925C17.3094 5.7411 16.6528 6.01146 16.0349 6.37193C15.7709 6.44274 15.6937 6.41056 15.7709 6.29469C15.8546 6.17882 16.0864 5.95996 16.479 5.74754C16.8652 5.51581 17.3802 5.23258 17.9982 4.90429C18.629 4.62106 19.3692 4.34427 20.1674 4.02885C20.9849 3.79068 21.8668 3.5332 22.7744 3.33365C23.2379 3.25641 23.7014 3.1856 24.1648 3.10835L24.86 2.99249C25.0918 2.97961 25.3299 2.96674 25.5617 2.95386C26.495 2.90237 27.4027 2.81869 28.2524 2.89593C28.6772 2.91524 29.0892 2.92812 29.4754 2.94743C29.8681 2.95386 30.2285 3.03755 30.5697 3.07617C30.5826 2.99249 30.6083 2.81225 30.6148 2.72857C30.2478 2.68351 29.8809 2.59339 29.5076 2.58695L28.394 2.52902L28.4004 2.35522C31.7605 2.50971 34.7988 3.31434 37.5925 4.62106C40.3797 5.93421 42.9353 7.76233 45.214 10.247C45.0273 10.041 44.7891 9.77713 44.5316 9.4939C44.2613 9.2171 43.9394 8.94675 43.6305 8.66352C43.3215 8.38029 43.0061 8.09706 42.7228 7.83958C42.4138 7.60784 42.1306 7.39542 41.9053 7.22806C41.9568 7.15725 42.0148 7.08644 41.1071 6.41056C42.9674 7.69796 44.8406 9.4424 46.4306 11.425C48.0527 13.3883 49.2435 15.6606 50.164 17.7269C50.4022 18.2418 50.4859 18.2161 50.37 17.6496C50.2864 17.0703 49.8744 15.9953 49.1148 14.4375C48.6578 13.7037 48.278 13.0021 47.8338 12.3841C47.3768 11.779 46.952 11.1933 46.5078 10.6268C46.025 10.0925 45.5358 9.55827 45.0273 8.99825C44.4801 8.47685 43.8815 7.94901 43.2442 7.36324L43.3537 7.22806C43.7785 7.62072 44.2613 8.06487 44.7698 8.53478C45.2848 8.99825 45.7289 9.57758 46.2246 10.1054C46.7331 10.6268 47.1258 11.2383 47.5506 11.779C47.7566 12.0558 47.9626 12.3198 48.1557 12.5772C48.3295 12.8476 48.4969 13.1051 48.6578 13.3497C48.9989 13.826 48.7543 13.2918 48.5033 12.7575C48.2716 12.2103 47.924 11.7276 48.3295 12.1653C48.6642 12.648 48.9539 13.1694 49.2757 13.6651L49.7585 14.4118C49.9001 14.6693 50.0482 14.9268 50.1898 15.1907C49.8358 14.3732 49.295 13.575 48.7736 12.7189C48.529 12.2811 48.2008 11.8885 47.8982 11.4829C47.5828 11.0774 47.2803 10.659 46.9584 10.2599C45.5873 8.71502 44.1197 7.24737 42.7035 6.17882C42.2529 5.79904 41.8216 5.38063 41.4676 5.11027C41.12 4.83348 40.8947 4.62106 40.9398 4.54381C38.3714 3.00536 35.8609 1.95612 33.5436 1.31242C33.2539 1.2223 32.9707 1.13862 32.6939 1.0485C32.4171 0.958382 32.1275 0.91976 31.8507 0.855389C31.2971 0.733085 30.7628 0.610781 30.2414 0.494915C29.1986 0.301803 28.2073 0.185937 27.2932 0.0250107C26.9907 -0.00717448 26.3727 -0.00717448 25.5681 0.0185737C25.1626 0.0443218 24.712 0.0185737 24.2292 0.102255C23.7464 0.173063 23.2315 0.250307 22.6972 0.327552C22.4333 0.372611 22.1629 0.411233 21.8861 0.456292C21.6158 0.5271 21.3454 0.597907 21.0751 0.662278C20.5279 0.803893 19.9808 0.951945 19.4401 1.09356C18.9122 1.2738 18.3972 1.47334 17.908 1.65358C17.4188 1.83382 16.936 1.98187 16.5305 2.19429Z" fill="#A0A0A0"/>
<path d="M33.7753 18.7117C32.9835 18.7117 32.3398 19.3554 32.3398 20.1471C32.3398 20.9389 32.9835 21.5826 33.7753 21.5826C34.5671 21.5826 35.2108 20.9389 35.2108 20.1471C35.2043 19.3554 34.5671 18.7117 33.7753 18.7117Z" fill="#A0A0A0"/>
<path d="M27.3962 20.5527C24.0747 20.5527 21.3711 23.2563 21.3711 26.5778C21.3711 29.8993 24.0747 32.6029 27.3962 32.6029C30.7177 32.6029 33.4212 29.8993 33.4212 26.5778C33.4212 23.2563 30.7177 20.5527 27.3962 20.5527ZM27.3962 30.4336C25.2655 30.4336 23.5404 28.702 23.5404 26.5778C23.5404 24.4536 25.2719 22.722 27.3962 22.722C29.5268 22.722 31.252 24.4536 31.252 26.5778C31.252 28.702 29.5268 30.4336 27.3962 30.4336Z" fill="#A0A0A0"/>
<path d="M32.179 38.8082H22.414C18.3651 38.8082 15.0693 35.5124 15.0693 31.4635V21.6921C15.0693 17.6432 18.3651 14.3474 22.414 14.3474H32.179C36.2279 14.3474 39.5237 17.6432 39.5237 21.6921V31.4571C39.5301 35.5124 36.2279 38.8082 32.179 38.8082ZM22.414 16.6454C19.6332 16.6454 17.3674 18.9113 17.3674 21.6921V31.4571C17.3674 34.2379 19.6332 36.5037 22.414 36.5037H32.179C34.9598 36.5037 37.2256 34.2379 37.2256 31.4571V21.6921C37.2256 18.9113 34.9598 16.6454 32.179 16.6454H22.414Z" fill="#A0A0A0"/>
</svg>
