<svg width="352" height="65" viewBox="0 0 352 65" fill="none" xmlns="http://www.w3.org/2000/svg">
<path d="M27.422 51.106C25.2642 55.1902 20.6858 57.9068 14.6813 57.9068C5.05545 57.9068 0.0830078 53.3355 0.0830078 46.3849V45.6729C0.0830078 38.2352 4.73646 34.0761 15.5632 34.0761C18.8469 34.0761 22.0556 34.4695 25.2642 35.2751V28.9427C25.2642 23.903 22.4496 21.4113 16.3701 21.4113C10.0279 21.4113 7.79498 23.8843 7.79498 27.8936V28.4556C7.79498 29.2612 7.40093 29.7296 6.42521 29.7296H2.89759C2.01569 29.7296 1.52783 29.2425 1.52783 28.3619V27.8748C1.52783 20.6619 6.33139 16.3529 16.3513 16.3529C26.5401 16.3529 31.9066 21.149 31.9066 29.3174V46.9282L37.123 52.1365C38.2488 53.2606 38.3989 54.5345 37.2919 55.6586L36.4099 56.5391C35.2841 57.6632 33.9331 57.5883 32.8073 56.4642L27.422 51.106ZM15.6383 52.9421C21.3238 52.9421 25.2642 49.6635 25.2642 44.9423V39.6591C21.9805 38.8535 19.2597 38.46 16.2012 38.46C9.54002 38.46 6.57532 40.8581 6.57532 45.3357V46.1413C6.57532 50.3754 9.46496 52.9421 15.6383 52.9421Z" fill="url(#paint0_linear)"/>
<path d="M51.6274 42.8627C51.6274 49.5136 55.155 52.7922 61.7223 52.7922C67.8957 52.7922 71.1043 50.0756 71.1043 44.6238V42.9377C71.1043 42.0571 71.6672 41.4951 72.5491 41.4951H76.0767C77.0337 41.4951 77.5216 42.1321 77.5216 43.0126V44.5301C77.5216 53.2606 71.6672 57.8881 61.7223 57.8881C51.1395 57.8881 44.8911 52.2863 44.8911 42.3569V31.8654C44.8911 21.9359 51.1395 16.3342 61.7223 16.3342C71.6672 16.3342 77.5216 20.9804 77.5216 29.6921V30.8911C77.5216 31.7717 77.0337 32.3337 76.0767 32.3337H72.5491C71.6672 32.3337 71.1043 31.7717 71.1043 30.8911V29.6546C71.1043 24.2028 67.8957 21.4863 61.7223 21.4863C55.155 21.4863 51.6274 24.7648 51.6274 31.322V42.8627Z" fill="url(#paint1_linear)"/>
<path d="M103.322 57.0262H86.0027C85.0458 57.0262 84.314 56.3893 84.314 55.5087V53.579C84.314 52.6236 85.027 52.0615 86.0027 52.0615H91.0502V27.5751L85.5899 22.1232C84.4641 20.9991 84.389 19.6502 85.4398 18.6011L86.3217 17.7205C87.4475 16.5964 88.8924 16.7651 89.9244 17.7955L96.0226 23.8843C98.0304 19.0882 101.952 16.4466 107.168 16.4466H108.763C111.09 16.4466 112.291 17.4957 112.291 19.4067V19.8001C112.291 21.5612 111.015 22.5167 109.157 22.5167H107.225C101.37 22.5167 97.7677 26.1887 97.7677 32.7646V52.0615H103.303C104.26 52.0615 104.992 52.6236 104.992 53.579V55.5087C105.011 56.3893 104.279 57.0262 103.322 57.0262Z" fill="url(#paint2_linear)"/>
<path d="M134.827 57.9067C124 57.9067 117.827 52.6985 117.827 43.1062V31.4157C117.827 21.5799 124.169 16.3716 134.339 16.3716C144.753 16.3716 150.776 21.4113 150.776 31.0972V36.7739C150.776 38.5349 149.969 39.3405 148.299 39.3405H124.488V43.5746C124.488 50.0569 128.015 52.942 134.827 52.942C141.563 52.942 144.04 50.469 144.04 46.3848V45.8977C144.04 45.1858 144.359 44.8486 145.166 44.8486H149.256C149.894 44.8486 150.307 45.242 150.307 45.8977V46.4598C150.307 53.579 145.335 57.9067 134.827 57.9067ZM124.488 34.5257H144.359V30.6101C144.359 24.2028 140.906 21.2427 134.339 21.2427C127.997 21.2427 124.488 24.3714 124.488 30.6101V34.5257Z" fill="url(#paint3_linear)"/>
<path d="M188.604 50.7875C186.446 55.4338 181.943 57.9068 175.863 57.9068C166.331 57.9068 159.914 52.38 159.914 42.4505V31.7154C159.914 21.786 166.331 16.3529 175.469 16.3529C180.273 16.3529 184.044 18.039 186.446 21.149V5.95503H181.324C180.367 5.95503 179.729 5.39298 179.729 4.43751V2.50782C179.729 1.62728 180.367 0.990295 181.324 0.990295H190.631C192.319 0.990295 193.201 1.70222 193.201 3.46329V46.7033L198.662 52.1552C199.712 53.2043 199.862 54.5532 198.737 55.6773L197.855 56.5579C196.729 57.6819 195.378 57.5133 194.327 56.4829L188.604 50.7875ZM166.65 31.2471V42.9376C166.65 49.3449 170.009 52.6985 176.595 52.6985C183.012 52.6985 186.465 49.3449 186.465 42.9376V31.2471C186.465 24.7648 183.012 21.4862 176.595 21.4862C170.009 21.4862 166.65 24.7648 166.65 31.2471Z" fill="url(#paint4_linear)"/>
<path d="M206.486 57.0262C205.529 57.0262 204.797 56.3893 204.797 55.4338V53.5041C204.797 52.6236 205.51 51.9866 206.486 51.9866H211.702V22.2169H206.486C205.529 22.2169 204.797 21.5799 204.797 20.6994V18.7697C204.797 17.8892 205.51 17.2522 206.486 17.2522H215.868C217.557 17.2522 218.439 17.9641 218.439 19.7252V51.9866H223.73C224.687 51.9866 225.419 52.6236 225.419 53.5041V55.4338C225.419 56.3893 224.706 57.0262 223.73 57.0262H206.486ZM213.448 10.5264C211.609 10.5264 210.483 9.40227 210.483 7.49131V3.80055C210.483 1.87086 211.609 0.765503 213.448 0.765503H215.455C217.294 0.765503 218.42 1.88959 218.42 3.80055V7.49131C218.42 9.421 217.294 10.5264 215.455 10.5264H213.448Z" fill="url(#paint5_linear)"/>
<path d="M248.48 57.0263C240.149 57.0263 237.015 53.9912 237.015 45.9727V22.2169H231.011C229.96 22.2169 229.322 21.5799 229.322 20.6994V18.8634C229.322 17.9079 229.96 17.2709 231.011 17.2709H237.015V7.97845C237.015 6.46092 237.972 5.41177 239.586 5.41177H241.181C242.7 5.41177 243.657 6.46092 243.657 7.97845V17.2709H253.358C254.315 17.2709 254.953 17.9079 254.953 18.8634V20.6994C254.953 21.5799 254.315 22.2169 253.358 22.2169H243.657V45.9165C243.657 50.1506 245.027 51.9117 248.874 51.9117H253.358C254.315 51.9117 254.953 52.4737 254.953 53.5041V55.2652C254.953 56.3893 254.315 57.0263 253.264 57.0263H248.48Z" fill="url(#paint6_linear)"/>
<path d="M287.753 51.106C285.595 55.1902 281.016 57.9068 275.012 57.9068C265.386 57.9068 260.414 53.3355 260.414 46.3849V45.6729C260.414 38.2352 265.067 34.0761 275.894 34.0761C279.177 34.0761 282.386 34.4695 285.595 35.2751V28.9427C285.595 23.903 282.78 21.4113 276.701 21.4113C270.358 21.4113 268.126 23.8843 268.126 27.8936V28.4556C268.126 29.2612 267.731 29.7296 266.756 29.7296H263.228C262.346 29.7296 261.858 29.2425 261.858 28.3619V27.8748C261.858 20.6619 266.662 16.3529 276.682 16.3529C286.871 16.3529 292.237 21.149 292.237 29.3174V46.9282L297.454 52.1365C298.579 53.2606 298.729 54.5345 297.622 55.6586L296.741 56.5391C295.615 57.6632 294.264 57.5883 293.138 56.4642L287.753 51.106ZM275.969 52.9421C281.654 52.9421 285.595 49.6635 285.595 44.9423V39.6591C282.311 38.8535 279.59 38.46 276.532 38.46C269.871 38.46 266.906 40.8581 266.906 45.3357V46.1413C266.906 50.3754 269.796 52.9421 275.969 52.9421Z" fill="url(#paint7_linear)"/>
<path d="M27.422 51.106C25.2642 55.1902 20.6858 57.9068 14.6813 57.9068C5.05545 57.9068 0.0830078 53.3355 0.0830078 46.3849V45.6729C0.0830078 38.2352 4.73646 34.0761 15.5632 34.0761C18.8469 34.0761 22.0556 34.4695 25.2642 35.2751V28.9427C25.2642 23.903 22.4496 21.4113 16.3701 21.4113C10.0279 21.4113 7.79498 23.8843 7.79498 27.8936V28.4556C7.79498 29.2612 7.40093 29.7296 6.42521 29.7296H2.89759C2.01569 29.7296 1.52783 29.2425 1.52783 28.3619V27.8748C1.52783 20.6619 6.33139 16.3529 16.3513 16.3529C26.5401 16.3529 31.9066 21.149 31.9066 29.3174V46.9282L37.123 52.1365C38.2488 53.2606 38.3989 54.5345 37.2919 55.6586L36.4099 56.5391C35.2841 57.6632 33.9331 57.5883 32.8073 56.4642L27.422 51.106ZM15.6383 52.9421C21.3238 52.9421 25.2642 49.6635 25.2642 44.9423V39.6591C21.9805 38.8535 19.2597 38.46 16.2012 38.46C9.54002 38.46 6.57532 40.8581 6.57532 45.3357V46.1413C6.57532 50.3754 9.46496 52.9421 15.6383 52.9421Z" fill="url(#paint8_linear)"/>
<path d="M51.6274 42.8627C51.6274 49.5136 55.155 52.7922 61.7223 52.7922C67.8957 52.7922 71.1043 50.0756 71.1043 44.6238V42.9377C71.1043 42.0571 71.6672 41.4951 72.5491 41.4951H76.0767C77.0337 41.4951 77.5216 42.1321 77.5216 43.0126V44.5301C77.5216 53.2606 71.6672 57.8881 61.7223 57.8881C51.1395 57.8881 44.8911 52.2863 44.8911 42.3569V31.8654C44.8911 21.9359 51.1395 16.3342 61.7223 16.3342C71.6672 16.3342 77.5216 20.9804 77.5216 29.6921V30.8911C77.5216 31.7717 77.0337 32.3337 76.0767 32.3337H72.5491C71.6672 32.3337 71.1043 31.7717 71.1043 30.8911V29.6546C71.1043 24.2028 67.8957 21.4863 61.7223 21.4863C55.155 21.4863 51.6274 24.7648 51.6274 31.322V42.8627Z" fill="url(#paint9_linear)"/>
<path d="M103.322 57.0262H86.0027C85.0458 57.0262 84.314 56.3893 84.314 55.5087V53.579C84.314 52.6236 85.027 52.0615 86.0027 52.0615H91.0502V27.5751L85.5899 22.1232C84.4641 20.9991 84.389 19.6502 85.4398 18.6011L86.3217 17.7205C87.4475 16.5964 88.8924 16.7651 89.9244 17.7955L96.0226 23.8843C98.0304 19.0882 101.952 16.4466 107.168 16.4466H108.763C111.09 16.4466 112.291 17.4957 112.291 19.4067V19.8001C112.291 21.5612 111.015 22.5167 109.157 22.5167H107.225C101.37 22.5167 97.7677 26.1887 97.7677 32.7646V52.0615H103.303C104.26 52.0615 104.992 52.6236 104.992 53.579V55.5087C105.011 56.3893 104.279 57.0262 103.322 57.0262Z" fill="url(#paint10_linear)"/>
<path d="M134.827 57.9067C124 57.9067 117.827 52.6985 117.827 43.1062V31.4157C117.827 21.5799 124.169 16.3716 134.339 16.3716C144.753 16.3716 150.776 21.4113 150.776 31.0972V36.7739C150.776 38.5349 149.969 39.3405 148.299 39.3405H124.488V43.5746C124.488 50.0569 128.015 52.942 134.827 52.942C141.563 52.942 144.04 50.469 144.04 46.3848V45.8977C144.04 45.1858 144.359 44.8486 145.166 44.8486H149.256C149.894 44.8486 150.307 45.242 150.307 45.8977V46.4598C150.307 53.579 145.335 57.9067 134.827 57.9067ZM124.488 34.5257H144.359V30.6101C144.359 24.2028 140.906 21.2427 134.339 21.2427C127.997 21.2427 124.488 24.3714 124.488 30.6101V34.5257Z" fill="url(#paint11_linear)"/>
<path d="M188.604 50.7875C186.446 55.4338 181.943 57.9068 175.863 57.9068C166.331 57.9068 159.914 52.38 159.914 42.4505V31.7154C159.914 21.786 166.331 16.3529 175.469 16.3529C180.273 16.3529 184.044 18.039 186.446 21.149V5.95503H181.324C180.367 5.95503 179.729 5.39298 179.729 4.43751V2.50782C179.729 1.62728 180.367 0.990295 181.324 0.990295H190.631C192.319 0.990295 193.201 1.70222 193.201 3.46329V46.7033L198.662 52.1552C199.712 53.2043 199.862 54.5532 198.737 55.6773L197.855 56.5579C196.729 57.6819 195.378 57.5133 194.327 56.4829L188.604 50.7875ZM166.65 31.2471V42.9376C166.65 49.3449 170.009 52.6985 176.595 52.6985C183.012 52.6985 186.465 49.3449 186.465 42.9376V31.2471C186.465 24.7648 183.012 21.4862 176.595 21.4862C170.009 21.4862 166.65 24.7648 166.65 31.2471Z" fill="url(#paint12_linear)"/>
<path d="M206.486 57.0262C205.529 57.0262 204.797 56.3893 204.797 55.4338V53.5041C204.797 52.6236 205.51 51.9866 206.486 51.9866H211.702V22.2169H206.486C205.529 22.2169 204.797 21.5799 204.797 20.6994V18.7697C204.797 17.8892 205.51 17.2522 206.486 17.2522H215.868C217.557 17.2522 218.439 17.9641 218.439 19.7252V51.9866H223.73C224.687 51.9866 225.419 52.6236 225.419 53.5041V55.4338C225.419 56.3893 224.706 57.0262 223.73 57.0262H206.486ZM213.448 10.5264C211.609 10.5264 210.483 9.40227 210.483 7.49131V3.80055C210.483 1.87086 211.609 0.765503 213.448 0.765503H215.455C217.294 0.765503 218.42 1.88959 218.42 3.80055V7.49131C218.42 9.421 217.294 10.5264 215.455 10.5264H213.448Z" fill="url(#paint13_linear)"/>
<path d="M248.48 57.0263C240.149 57.0263 237.015 53.9912 237.015 45.9727V22.2169H231.011C229.96 22.2169 229.322 21.5799 229.322 20.6994V18.8634C229.322 17.9079 229.96 17.2709 231.011 17.2709H237.015V7.97845C237.015 6.46092 237.972 5.41177 239.586 5.41177H241.181C242.7 5.41177 243.657 6.46092 243.657 7.97845V17.2709H253.358C254.315 17.2709 254.953 17.9079 254.953 18.8634V20.6994C254.953 21.5799 254.315 22.2169 253.358 22.2169H243.657V45.9165C243.657 50.1506 245.027 51.9117 248.874 51.9117H253.358C254.315 51.9117 254.953 52.4737 254.953 53.5041V55.2652C254.953 56.3893 254.315 57.0263 253.264 57.0263H248.48Z" fill="url(#paint14_linear)"/>
<path d="M287.753 51.106C285.595 55.1902 281.016 57.9068 275.012 57.9068C265.386 57.9068 260.414 53.3355 260.414 46.3849V45.6729C260.414 38.2352 265.067 34.0761 275.894 34.0761C279.177 34.0761 282.386 34.4695 285.595 35.2751V28.9427C285.595 23.903 282.78 21.4113 276.701 21.4113C270.358 21.4113 268.126 23.8843 268.126 27.8936V28.4556C268.126 29.2612 267.731 29.7296 266.756 29.7296H263.228C262.346 29.7296 261.858 29.2425 261.858 28.3619V27.8748C261.858 20.6619 266.662 16.3529 276.682 16.3529C286.871 16.3529 292.237 21.149 292.237 29.3174V46.9282L297.454 52.1365C298.579 53.2606 298.729 54.5345 297.622 55.6586L296.741 56.5391C295.615 57.6632 294.264 57.5883 293.138 56.4642L287.753 51.106ZM275.969 52.9421C281.654 52.9421 285.595 49.6635 285.595 44.9423V39.6591C282.311 38.8535 279.59 38.46 276.532 38.46C269.871 38.46 266.906 40.8581 266.906 45.3357V46.1413C266.906 50.3754 269.796 52.9421 275.969 52.9421Z" fill="url(#paint15_linear)"/>
<path d="M325.261 63.8457C340.018 63.8457 351.981 51.9014 351.981 37.1673C351.981 22.4332 340.018 10.4889 325.261 10.4889C310.504 10.4889 298.542 22.4332 298.542 37.1673C298.542 51.9014 310.504 63.8457 325.261 63.8457Z" fill="#17D1CE"/>
<path d="M339.766 45.1858C339.766 51.5744 336.314 55.8272 328.377 56.689V61.7849C328.377 63.5647 327.138 64.8574 325.299 64.8574H324.924C323.085 64.8574 321.847 63.5647 321.847 61.7849V56.7452C313.666 55.9396 310.457 52.0802 310.457 46.2912V45.1296C310.457 44.2116 311.02 43.6495 311.939 43.6495H316.311C317.174 43.6495 317.662 44.1367 317.662 44.9985V46.16C317.662 49.6072 319.501 51.2559 325.055 51.2559C330.234 51.2559 332.505 49.7196 332.505 46.16V44.9235C332.505 42.0946 331.154 41.3639 328.377 40.8581L320.195 39.3218C313.985 38.1602 310.72 35.8746 310.72 29.1113V28.1558C310.72 21.8234 314.041 17.5894 321.865 16.7276V12.2312C321.865 10.4514 323.104 9.15869 324.943 9.15869H325.318C327.157 9.15869 328.395 10.4514 328.395 12.2312V16.7276C336.332 17.5332 339.353 21.3363 339.353 27.0505V28.0434C339.353 29.0176 338.79 29.5797 337.946 29.5797H333.63C332.636 29.5797 332.148 29.0176 332.148 28.1746V27.1816C332.148 23.8093 330.422 22.1419 325.074 22.1419C319.97 22.1419 317.925 23.6782 317.925 27.2378V28.3994C317.925 31.2283 319.276 31.959 321.997 32.4648L330.253 34.0011C336.407 35.1627 339.804 37.4483 339.804 44.1367V45.1858H339.766Z" fill="white"/>
<defs>
<linearGradient id="paint0_linear" x1="8.338" y1="45.5911" x2="304.609" y2="24.3581" gradientUnits="userSpaceOnUse">
<stop stop-color="#169BC7"/>
<stop offset="0.2593" stop-color="#16A0C8"/>
<stop offset="0.5485" stop-color="#16ADC9"/>
<stop offset="0.8511" stop-color="#17C3CC"/>
<stop offset="1" stop-color="#17D1CE"/>
</linearGradient>
<linearGradient id="paint1_linear" x1="8.33787" y1="45.5911" x2="304.609" y2="24.3581" gradientUnits="userSpaceOnUse">
<stop stop-color="#169BC7"/>
<stop offset="0.2593" stop-color="#16A0C8"/>
<stop offset="0.5485" stop-color="#16ADC9"/>
<stop offset="0.8511" stop-color="#17C3CC"/>
<stop offset="1" stop-color="#17D1CE"/>
</linearGradient>
<linearGradient id="paint2_linear" x1="8.33777" y1="45.5911" x2="304.609" y2="24.3581" gradientUnits="userSpaceOnUse">
<stop stop-color="#169BC7"/>
<stop offset="0.2593" stop-color="#16A0C8"/>
<stop offset="0.5485" stop-color="#16ADC9"/>
<stop offset="0.8511" stop-color="#17C3CC"/>
<stop offset="1" stop-color="#17D1CE"/>
</linearGradient>
<linearGradient id="paint3_linear" x1="8.3382" y1="45.591" x2="304.609" y2="24.3581" gradientUnits="userSpaceOnUse">
<stop stop-color="#169BC7"/>
<stop offset="0.2593" stop-color="#16A0C8"/>
<stop offset="0.5485" stop-color="#16ADC9"/>
<stop offset="0.8511" stop-color="#17C3CC"/>
<stop offset="1" stop-color="#17D1CE"/>
</linearGradient>
<linearGradient id="paint4_linear" x1="8.33808" y1="45.591" x2="304.609" y2="24.3581" gradientUnits="userSpaceOnUse">
<stop stop-color="#169BC7"/>
<stop offset="0.2593" stop-color="#16A0C8"/>
<stop offset="0.5485" stop-color="#16ADC9"/>
<stop offset="0.8511" stop-color="#17C3CC"/>
<stop offset="1" stop-color="#17D1CE"/>
</linearGradient>
<linearGradient id="paint5_linear" x1="8.3381" y1="45.5911" x2="304.609" y2="24.3581" gradientUnits="userSpaceOnUse">
<stop stop-color="#169BC7"/>
<stop offset="0.2593" stop-color="#16A0C8"/>
<stop offset="0.5485" stop-color="#16ADC9"/>
<stop offset="0.8511" stop-color="#17C3CC"/>
<stop offset="1" stop-color="#17D1CE"/>
</linearGradient>
<linearGradient id="paint6_linear" x1="8.33823" y1="45.5911" x2="304.609" y2="24.3582" gradientUnits="userSpaceOnUse">
<stop stop-color="#169BC7"/>
<stop offset="0.2593" stop-color="#16A0C8"/>
<stop offset="0.5485" stop-color="#16ADC9"/>
<stop offset="0.8511" stop-color="#17C3CC"/>
<stop offset="1" stop-color="#17D1CE"/>
</linearGradient>
<linearGradient id="paint7_linear" x1="8.33822" y1="45.5911" x2="304.609" y2="24.3581" gradientUnits="userSpaceOnUse">
<stop stop-color="#169BC7"/>
<stop offset="0.2593" stop-color="#16A0C8"/>
<stop offset="0.5485" stop-color="#16ADC9"/>
<stop offset="0.8511" stop-color="#17C3CC"/>
<stop offset="1" stop-color="#17D1CE"/>
</linearGradient>
<linearGradient id="paint8_linear" x1="2.86476" y1="58.6296" x2="266.495" y2="20.6996" gradientUnits="userSpaceOnUse">
<stop offset="0.00350697" stop-color="#169BC7"/>
<stop offset="0.2407" stop-color="#16A0C8"/>
<stop offset="0.5053" stop-color="#16ADC9"/>
<stop offset="0.7821" stop-color="#17C3CC"/>
<stop offset="0.9183" stop-color="#17D1CE"/>
</linearGradient>
<linearGradient id="paint9_linear" x1="2.86463" y1="58.6296" x2="266.495" y2="20.6995" gradientUnits="userSpaceOnUse">
<stop offset="0.00350697" stop-color="#169BC7"/>
<stop offset="0.2407" stop-color="#16A0C8"/>
<stop offset="0.5053" stop-color="#16ADC9"/>
<stop offset="0.7821" stop-color="#17C3CC"/>
<stop offset="0.9183" stop-color="#17D1CE"/>
</linearGradient>
<linearGradient id="paint10_linear" x1="2.86452" y1="58.6296" x2="266.495" y2="20.6996" gradientUnits="userSpaceOnUse">
<stop offset="0.00350697" stop-color="#169BC7"/>
<stop offset="0.2407" stop-color="#16A0C8"/>
<stop offset="0.5053" stop-color="#16ADC9"/>
<stop offset="0.7821" stop-color="#17C3CC"/>
<stop offset="0.9183" stop-color="#17D1CE"/>
</linearGradient>
<linearGradient id="paint11_linear" x1="2.86496" y1="58.6295" x2="266.495" y2="20.6996" gradientUnits="userSpaceOnUse">
<stop offset="0.00350697" stop-color="#169BC7"/>
<stop offset="0.2407" stop-color="#16A0C8"/>
<stop offset="0.5053" stop-color="#16ADC9"/>
<stop offset="0.7821" stop-color="#17C3CC"/>
<stop offset="0.9183" stop-color="#17D1CE"/>
</linearGradient>
<linearGradient id="paint12_linear" x1="2.86483" y1="58.6295" x2="266.495" y2="20.6995" gradientUnits="userSpaceOnUse">
<stop offset="0.00350697" stop-color="#169BC7"/>
<stop offset="0.2407" stop-color="#16A0C8"/>
<stop offset="0.5053" stop-color="#16ADC9"/>
<stop offset="0.7821" stop-color="#17C3CC"/>
<stop offset="0.9183" stop-color="#17D1CE"/>
</linearGradient>
<linearGradient id="paint13_linear" x1="2.86488" y1="58.6296" x2="266.495" y2="20.6996" gradientUnits="userSpaceOnUse">
<stop offset="0.00350697" stop-color="#169BC7"/>
<stop offset="0.2407" stop-color="#16A0C8"/>
<stop offset="0.5053" stop-color="#16ADC9"/>
<stop offset="0.7821" stop-color="#17C3CC"/>
<stop offset="0.9183" stop-color="#17D1CE"/>
</linearGradient>
<linearGradient id="paint14_linear" x1="2.86499" y1="58.6296" x2="266.495" y2="20.6997" gradientUnits="userSpaceOnUse">
<stop offset="0.00350697" stop-color="#169BC7"/>
<stop offset="0.2407" stop-color="#16A0C8"/>
<stop offset="0.5053" stop-color="#16ADC9"/>
<stop offset="0.7821" stop-color="#17C3CC"/>
<stop offset="0.9183" stop-color="#17D1CE"/>
</linearGradient>
<linearGradient id="paint15_linear" x1="2.86498" y1="58.6296" x2="266.495" y2="20.6996" gradientUnits="userSpaceOnUse">
<stop offset="0.00350697" stop-color="#169BC7"/>
<stop offset="0.2407" stop-color="#16A0C8"/>
<stop offset="0.5053" stop-color="#16ADC9"/>
<stop offset="0.7821" stop-color="#17C3CC"/>
<stop offset="0.9183" stop-color="#17D1CE"/>
</linearGradient>
</defs>
</svg>
