<svg width="187" height="34" viewBox="0 0 187 34" fill="none" xmlns="http://www.w3.org/2000/svg">
<path d="M14.5798 27.15C13.4298 29.33 10.9898 30.78 7.78977 30.78C2.65977 30.78 0.00976562 28.34 0.00976562 24.63V24.25C0.00976562 20.28 2.48977 18.06 8.25977 18.06C10.0098 18.06 11.7198 18.27 13.4298 18.7V15.32C13.4298 12.63 11.9298 11.3 8.68976 11.3C5.30976 11.3 4.11977 12.62 4.11977 14.76V15.06C4.11977 15.49 3.90977 15.74 3.38977 15.74H1.49977C1.02977 15.74 0.769766 15.48 0.769766 15.01V14.75C0.769766 10.9 3.32977 8.60004 8.66977 8.60004C14.0998 8.60004 16.9598 11.16 16.9598 15.52V24.92L19.7398 27.7C20.3398 28.3 20.4198 28.98 19.8198 29.58L19.3498 30.05C18.7498 30.65 18.0298 30.61 17.4298 30.01L14.5798 27.15ZM8.29977 28.13C11.3298 28.13 13.4298 26.38 13.4298 23.86V21.04C11.6798 20.61 10.2298 20.4 8.59977 20.4C5.04977 20.4 3.46977 21.68 3.46977 24.07V24.5C3.46977 26.76 5.00977 28.13 8.29977 28.13Z" fill="white"/>
<path d="M27.1295 22.75C27.1295 26.3 29.0095 28.05 32.5095 28.05C35.7995 28.05 37.5095 26.6 37.5095 23.69V22.79C37.5095 22.32 37.8095 22.02 38.2795 22.02H40.1595C40.6695 22.02 40.9296 22.36 40.9296 22.83V23.64C40.9296 28.3 37.8095 30.77 32.5095 30.77C26.8695 30.77 23.5396 27.78 23.5396 22.48V16.88C23.5396 11.58 26.8695 8.59003 32.5095 8.59003C37.8095 8.59003 40.9296 11.07 40.9296 15.72V16.36C40.9296 16.83 40.6695 17.13 40.1595 17.13H38.2795C37.8095 17.13 37.5095 16.83 37.5095 16.36V15.7C37.5095 12.79 35.7995 11.34 32.5095 11.34C29.0095 11.34 27.1295 13.09 27.1295 16.59V22.75Z" fill="white"/>
<path d="M54.6896 30.31H45.4596C44.9496 30.31 44.5596 29.97 44.5596 29.5V28.47C44.5596 27.96 44.9396 27.66 45.4596 27.66H48.1496V14.59L45.2396 11.68C44.6396 11.08 44.5996 10.36 45.1496 9.80002L45.6196 9.33002C46.2196 8.73002 46.9896 8.82002 47.5396 9.37002L50.7896 12.62C51.8596 10.06 53.9496 8.65002 56.7296 8.65002H57.5796C58.8196 8.65002 59.4596 9.21002 59.4596 10.23V10.44C59.4596 11.38 58.7796 11.89 57.7896 11.89H56.7596C53.6396 11.89 51.7196 13.85 51.7196 17.36V27.66H54.6696C55.1796 27.66 55.5696 27.96 55.5696 28.47V29.5C55.5796 29.97 55.1996 30.31 54.6896 30.31Z" fill="white"/>
<path d="M70.5795 30.78C64.8095 30.78 61.5195 28 61.5195 22.88V16.64C61.5195 11.39 64.8995 8.61002 70.3195 8.61002C75.8695 8.61002 79.0795 11.3 79.0795 16.47V19.5C79.0795 20.44 78.6495 20.87 77.7595 20.87H65.0695V23.13C65.0695 26.59 66.9495 28.13 70.5795 28.13C74.1695 28.13 75.4895 26.81 75.4895 24.63V24.37C75.4895 23.99 75.6595 23.81 76.0895 23.81H78.2695C78.6095 23.81 78.8295 24.02 78.8295 24.37V24.67C78.8195 28.47 76.1795 30.78 70.5795 30.78ZM65.0695 18.3H75.6695V16.21C75.6695 12.79 73.8295 11.21 70.3295 11.21C66.9495 11.21 65.0695 12.88 65.0695 16.21V18.3Z" fill="white"/>
<path d="M99.2397 26.98C98.0897 29.46 95.6897 30.78 92.4497 30.78C87.3697 30.78 83.9497 27.83 83.9497 22.53V16.8C83.9497 11.5 87.3697 8.60003 92.2397 8.60003C94.7997 8.60003 96.8097 9.50002 98.0897 11.16V3.05002H95.3597C94.8497 3.05002 94.5097 2.75002 94.5097 2.24002V1.21002C94.5097 0.740024 94.8497 0.400024 95.3597 0.400024H100.32C101.22 0.400024 101.69 0.780024 101.69 1.72002V24.8L104.6 27.71C105.16 28.27 105.24 28.99 104.64 29.59L104.17 30.06C103.57 30.66 102.85 30.57 102.29 30.02L99.2397 26.98ZM87.5397 16.55V22.79C87.5397 26.21 89.3297 28 92.8397 28C96.2597 28 98.0997 26.21 98.0997 22.79V16.55C98.0997 13.09 96.2597 11.34 92.8397 11.34C89.3297 11.34 87.5397 13.09 87.5397 16.55Z" fill="white"/>
<path d="M108.77 30.31C108.26 30.31 107.87 29.97 107.87 29.46V28.43C107.87 27.96 108.25 27.62 108.77 27.62H111.55V11.73H108.77C108.26 11.73 107.87 11.39 107.87 10.92V9.89003C107.87 9.42003 108.25 9.08003 108.77 9.08003H113.77C114.67 9.08003 115.14 9.46003 115.14 10.4V27.62H117.96C118.47 27.62 118.86 27.96 118.86 28.43V29.46C118.86 29.97 118.48 30.31 117.96 30.31H108.77ZM112.48 5.49003C111.5 5.49003 110.9 4.89003 110.9 3.87003V1.90003C110.9 0.870029 111.5 0.280029 112.48 0.280029H113.55C114.53 0.280029 115.13 0.880029 115.13 1.90003V3.87003C115.13 4.90003 114.53 5.49003 113.55 5.49003H112.48Z" fill="white"/>
<path d="M130.6 30.31C126.16 30.31 124.49 28.69 124.49 24.41V11.73H121.29C120.73 11.73 120.39 11.39 120.39 10.92V9.94004C120.39 9.43004 120.73 9.09004 121.29 9.09004H124.49V4.13004C124.49 3.32004 125 2.76004 125.86 2.76004H126.71C127.52 2.76004 128.03 3.32004 128.03 4.13004V9.09004H133.2C133.71 9.09004 134.05 9.43004 134.05 9.94004V10.92C134.05 11.39 133.71 11.73 133.2 11.73H128.03V24.38C128.03 26.64 128.76 27.58 130.81 27.58H133.2C133.71 27.58 134.05 27.88 134.05 28.43V29.37C134.05 29.97 133.71 30.31 133.15 30.31H130.6Z" fill="white"/>
<path d="M151.53 27.15C150.38 29.33 147.94 30.78 144.74 30.78C139.61 30.78 136.96 28.34 136.96 24.63V24.25C136.96 20.28 139.44 18.06 145.21 18.06C146.96 18.06 148.67 18.27 150.38 18.7V15.32C150.38 12.63 148.88 11.3 145.64 11.3C142.26 11.3 141.07 12.62 141.07 14.76V15.06C141.07 15.49 140.86 15.74 140.34 15.74H138.46C137.99 15.74 137.73 15.48 137.73 15.01V14.75C137.73 10.9 140.29 8.60004 145.63 8.60004C151.06 8.60004 153.92 11.16 153.92 15.52V24.92L156.7 27.7C157.3 28.3 157.38 28.98 156.78 29.58L156.31 30.05C155.71 30.65 154.99 30.61 154.39 30.01L151.53 27.15ZM145.25 28.13C148.28 28.13 150.38 26.38 150.38 23.86V21.04C148.63 20.61 147.18 20.4 145.55 20.4C142 20.4 140.42 21.68 140.42 24.07V24.5C140.42 26.76 141.96 28.13 145.25 28.13Z" fill="white"/>
<path d="M14.5798 27.15C13.4298 29.33 10.9898 30.78 7.78977 30.78C2.65977 30.78 0.00976562 28.34 0.00976562 24.63V24.25C0.00976562 20.28 2.48977 18.06 8.25977 18.06C10.0098 18.06 11.7198 18.27 13.4298 18.7V15.32C13.4298 12.63 11.9298 11.3 8.68976 11.3C5.30976 11.3 4.11977 12.62 4.11977 14.76V15.06C4.11977 15.49 3.90977 15.74 3.38977 15.74H1.49977C1.02977 15.74 0.769766 15.48 0.769766 15.01V14.75C0.769766 10.9 3.32977 8.60004 8.66977 8.60004C14.0998 8.60004 16.9598 11.16 16.9598 15.52V24.92L19.7398 27.7C20.3398 28.3 20.4198 28.98 19.8198 29.58L19.3498 30.05C18.7498 30.65 18.0298 30.61 17.4298 30.01L14.5798 27.15ZM8.29977 28.13C11.3298 28.13 13.4298 26.38 13.4298 23.86V21.04C11.6798 20.61 10.2298 20.4 8.59977 20.4C5.04977 20.4 3.46977 21.68 3.46977 24.07V24.5C3.46977 26.76 5.00977 28.13 8.29977 28.13Z" fill="white"/>
<path d="M27.1295 22.75C27.1295 26.3 29.0095 28.05 32.5095 28.05C35.7995 28.05 37.5095 26.6 37.5095 23.69V22.79C37.5095 22.32 37.8095 22.02 38.2795 22.02H40.1595C40.6695 22.02 40.9296 22.36 40.9296 22.83V23.64C40.9296 28.3 37.8095 30.77 32.5095 30.77C26.8695 30.77 23.5396 27.78 23.5396 22.48V16.88C23.5396 11.58 26.8695 8.59003 32.5095 8.59003C37.8095 8.59003 40.9296 11.07 40.9296 15.72V16.36C40.9296 16.83 40.6695 17.13 40.1595 17.13H38.2795C37.8095 17.13 37.5095 16.83 37.5095 16.36V15.7C37.5095 12.79 35.7995 11.34 32.5095 11.34C29.0095 11.34 27.1295 13.09 27.1295 16.59V22.75Z" fill="white"/>
<path d="M54.6896 30.31H45.4596C44.9496 30.31 44.5596 29.97 44.5596 29.5V28.47C44.5596 27.96 44.9396 27.66 45.4596 27.66H48.1496V14.59L45.2396 11.68C44.6396 11.08 44.5996 10.36 45.1496 9.80002L45.6196 9.33002C46.2196 8.73002 46.9896 8.82002 47.5396 9.37002L50.7896 12.62C51.8596 10.06 53.9496 8.65002 56.7296 8.65002H57.5796C58.8196 8.65002 59.4596 9.21002 59.4596 10.23V10.44C59.4596 11.38 58.7796 11.89 57.7896 11.89H56.7596C53.6396 11.89 51.7196 13.85 51.7196 17.36V27.66H54.6696C55.1796 27.66 55.5696 27.96 55.5696 28.47V29.5C55.5796 29.97 55.1996 30.31 54.6896 30.31Z" fill="white"/>
<path d="M70.5795 30.78C64.8095 30.78 61.5195 28 61.5195 22.88V16.64C61.5195 11.39 64.8995 8.61002 70.3195 8.61002C75.8695 8.61002 79.0795 11.3 79.0795 16.47V19.5C79.0795 20.44 78.6495 20.87 77.7595 20.87H65.0695V23.13C65.0695 26.59 66.9495 28.13 70.5795 28.13C74.1695 28.13 75.4895 26.81 75.4895 24.63V24.37C75.4895 23.99 75.6595 23.81 76.0895 23.81H78.2695C78.6095 23.81 78.8295 24.02 78.8295 24.37V24.67C78.8195 28.47 76.1795 30.78 70.5795 30.78ZM65.0695 18.3H75.6695V16.21C75.6695 12.79 73.8295 11.21 70.3295 11.21C66.9495 11.21 65.0695 12.88 65.0695 16.21V18.3Z" fill="white"/>
<path d="M99.2397 26.98C98.0897 29.46 95.6897 30.78 92.4497 30.78C87.3697 30.78 83.9497 27.83 83.9497 22.53V16.8C83.9497 11.5 87.3697 8.60003 92.2397 8.60003C94.7997 8.60003 96.8097 9.50002 98.0897 11.16V3.05002H95.3597C94.8497 3.05002 94.5097 2.75002 94.5097 2.24002V1.21002C94.5097 0.740024 94.8497 0.400024 95.3597 0.400024H100.32C101.22 0.400024 101.69 0.780024 101.69 1.72002V24.8L104.6 27.71C105.16 28.27 105.24 28.99 104.64 29.59L104.17 30.06C103.57 30.66 102.85 30.57 102.29 30.02L99.2397 26.98ZM87.5397 16.55V22.79C87.5397 26.21 89.3297 28 92.8397 28C96.2597 28 98.0997 26.21 98.0997 22.79V16.55C98.0997 13.09 96.2597 11.34 92.8397 11.34C89.3297 11.34 87.5397 13.09 87.5397 16.55Z" fill="white"/>
<path d="M108.77 30.31C108.26 30.31 107.87 29.97 107.87 29.46V28.43C107.87 27.96 108.25 27.62 108.77 27.62H111.55V11.73H108.77C108.26 11.73 107.87 11.39 107.87 10.92V9.89003C107.87 9.42003 108.25 9.08003 108.77 9.08003H113.77C114.67 9.08003 115.14 9.46003 115.14 10.4V27.62H117.96C118.47 27.62 118.86 27.96 118.86 28.43V29.46C118.86 29.97 118.48 30.31 117.96 30.31H108.77ZM112.48 5.49003C111.5 5.49003 110.9 4.89003 110.9 3.87003V1.90003C110.9 0.870029 111.5 0.280029 112.48 0.280029H113.55C114.53 0.280029 115.13 0.880029 115.13 1.90003V3.87003C115.13 4.90003 114.53 5.49003 113.55 5.49003H112.48Z" fill="white"/>
<path d="M130.6 30.31C126.16 30.31 124.49 28.69 124.49 24.41V11.73H121.29C120.73 11.73 120.39 11.39 120.39 10.92V9.94004C120.39 9.43004 120.73 9.09004 121.29 9.09004H124.49V4.13004C124.49 3.32004 125 2.76004 125.86 2.76004H126.71C127.52 2.76004 128.03 3.32004 128.03 4.13004V9.09004H133.2C133.71 9.09004 134.05 9.43004 134.05 9.94004V10.92C134.05 11.39 133.71 11.73 133.2 11.73H128.03V24.38C128.03 26.64 128.76 27.58 130.81 27.58H133.2C133.71 27.58 134.05 27.88 134.05 28.43V29.37C134.05 29.97 133.71 30.31 133.15 30.31H130.6Z" fill="white"/>
<path d="M151.53 27.15C150.38 29.33 147.94 30.78 144.74 30.78C139.61 30.78 136.96 28.34 136.96 24.63V24.25C136.96 20.28 139.44 18.06 145.21 18.06C146.96 18.06 148.67 18.27 150.38 18.7V15.32C150.38 12.63 148.88 11.3 145.64 11.3C142.26 11.3 141.07 12.62 141.07 14.76V15.06C141.07 15.49 140.86 15.74 140.34 15.74H138.46C137.99 15.74 137.73 15.48 137.73 15.01V14.75C137.73 10.9 140.29 8.60004 145.63 8.60004C151.06 8.60004 153.92 11.16 153.92 15.52V24.92L156.7 27.7C157.3 28.3 157.38 28.98 156.78 29.58L156.31 30.05C155.71 30.65 154.99 30.61 154.39 30.01L151.53 27.15ZM145.25 28.13C148.28 28.13 150.38 26.38 150.38 23.86V21.04C148.63 20.61 147.18 20.4 145.55 20.4C142 20.4 140.42 21.68 140.42 24.07V24.5C140.42 26.76 141.96 28.13 145.25 28.13Z" fill="white"/>
<path d="M170.59 32.85V30.16C166.23 29.73 164.52 27.67 164.52 24.58V23.96C164.52 23.47 164.82 23.17 165.31 23.17H167.64C168.1 23.17 168.36 23.43 168.36 23.89V24.51C168.36 26.35 169.34 27.23 172.3 27.23C175.06 27.23 176.27 26.41 176.27 24.51V23.85C176.27 22.34 175.55 21.95 174.07 21.68L169.71 20.86C166.4 20.24 164.66 19.02 164.66 15.41V14.9C164.66 11.52 166.43 9.26003 170.6 8.80003V6.40003C170.6 6.09003 170.68 5.80003 170.81 5.56003C163.71 6.36003 158.18 12.38 158.18 19.7C158.18 27.06 163.76 33.11 170.93 33.86C170.71 33.6 170.59 33.25 170.59 32.85Z" fill="white"/>
<path d="M173.85 5.54004C173.99 5.79004 174.07 6.08004 174.07 6.40004V8.80004C178.3 9.23004 179.91 11.26 179.91 14.31V14.84C179.91 15.36 179.61 15.66 179.16 15.66H176.86C176.33 15.66 176.07 15.36 176.07 14.91V14.38C176.07 12.58 175.15 11.69 172.3 11.69C169.58 11.69 168.49 12.51 168.49 14.41V15.03C168.49 16.54 169.21 16.93 170.66 17.2L175.06 18.02C178.34 18.64 180.15 19.86 180.15 23.43V23.99C180.15 27.4 178.31 29.67 174.08 30.13V32.85C174.08 33.26 173.95 33.61 173.74 33.89C180.99 33.23 186.67 27.14 186.67 19.72C186.66 12.33 181.04 6.26004 173.85 5.54004Z" fill="white"/>
</svg>
