<svg width="63" height="75" viewBox="0 0 63 75" fill="none" xmlns="http://www.w3.org/2000/svg">
<path d="M24.535 68.0581C24.535 71.8953 27.65 75 31.5 75C35.35 75 38.465 71.8953 38.465 68.0581H24.535ZM31.5 15.6977C41.16 15.6977 49 23.5116 49 33.1395V57.5581H14V33.1395C14 23.5116 21.84 15.6977 31.5 15.6977ZM31.5 0C28.595 0 26.25 2.33721 26.25 5.23256V9.31395C15.26 11.686 7 21.4535 7 33.1395V54.0698L0 61.0465V64.5349H63V61.0465L56 54.0698V33.1395C56 21.4535 47.74 11.686 36.75 9.31395V5.23256C36.75 2.33721 34.405 0 31.5 0ZM28 22.6744H35V36.6279H28V22.6744ZM28 43.6047H35V50.5814H28V43.6047Z" fill="white"/>
</svg>
