<svg width="55" height="55" viewBox="0 0 55 55" fill="none" xmlns="http://www.w3.org/2000/svg">
<path d="M17.1237 2.2315C17.6997 1.94625 18.33 1.7777 18.9331 1.5508C19.543 1.34335 20.1461 1.10997 20.7832 0.973834C20.1055 1.10349 19.4617 1.34335 18.8044 1.55729C18.1538 1.7777 17.4829 1.97218 16.8594 2.27039C16.2292 2.54915 15.5922 2.82143 14.9619 3.11316L13.1526 4.12447C10.801 5.57013 8.61214 7.314 6.76887 9.37553C4.94593 11.45 3.43472 13.7709 2.27589 16.2538C1.17806 18.7691 0.473282 21.427 0.134445 24.1239C-0.129848 26.8207 -0.0146435 29.537 0.480058 32.195C1.0493 34.8335 1.96416 37.3877 3.22464 39.7604C4.5461 42.1007 6.15219 44.2659 8.02257 46.1783C9.94038 48.0389 12.0479 49.692 14.352 51.0145C14.901 51.384 15.7955 51.8313 16.6765 52.3175C17.5642 52.7908 18.5197 53.1344 19.1364 53.4131C24.2257 55.2089 30.6162 55.6043 36.5391 53.9512C39.487 53.1214 42.3061 51.8832 44.7728 50.2755C47.2192 48.6483 49.3336 46.7359 51.0548 44.7327C52.7151 42.6711 53.7452 40.5966 54.206 39.0473C54.4432 38.2693 54.6262 37.6599 54.7075 37.2256C54.7685 36.7913 54.8024 36.5449 54.8024 36.5449C55.087 35.3002 55.1616 34.0555 54.5516 35.1446C54.3009 35.7021 54.0231 36.4995 53.6165 37.3228C53.3996 37.7313 53.176 38.1526 52.9523 38.574C52.7355 39.0019 52.5051 39.4168 52.2272 39.7928C51.6986 40.5448 51.2582 41.2644 50.8244 41.7052C50.4043 42.159 50.1129 42.4183 50.0383 42.3665C50.0045 42.3405 50.1671 42.0877 50.4382 41.7247C50.5669 41.5367 50.7431 41.3357 50.8922 41.1023C51.0413 40.8624 51.2039 40.6096 51.3666 40.3568C51.2853 40.3114 51.3124 40.0586 51.3937 39.702C51.4682 39.339 51.6512 38.8917 51.7596 38.3731C52.0104 37.3553 52.3831 36.2661 52.5525 35.7151C52.6067 35.4299 52.7829 34.8075 52.9862 34.0166C53.054 33.6147 53.1285 33.1674 53.2098 32.6941C53.2776 32.2274 53.3996 31.7476 53.4064 31.2485C53.6165 29.2842 53.4335 27.3329 53.3928 26.7883C53.2505 25.0898 52.8846 26.8531 52.2679 29.2971C52.0646 29.9065 51.8545 30.5678 51.6444 31.242C51.3734 31.8967 51.1023 32.571 50.8312 33.2322C50.5398 33.8805 50.1874 34.4834 49.9096 35.0668C49.6317 35.6438 49.2658 36.13 49.0218 36.5773C48.4932 37.459 48.3509 37.3747 48.3848 37.1089C48.3848 36.8237 48.4865 36.318 48.3577 36.2597C48.2561 36.4866 48.1544 36.694 48.0595 36.895C47.9511 37.0895 47.8291 37.258 47.7139 37.4266C47.4835 37.7572 47.2667 38.0619 47.0498 38.3666C46.8465 38.6777 46.5686 38.9435 46.3179 39.2612C46.0536 39.5724 45.7961 39.9224 45.4979 40.3179C45.4776 40.3049 45.1997 40.5578 44.766 40.9856C44.5492 41.1996 44.2917 41.4524 44.007 41.7376C43.6953 41.9969 43.3565 42.2822 42.9905 42.5804C42.8143 42.7295 42.6314 42.8851 42.4416 43.0407C42.2383 43.1768 42.035 43.3194 41.8317 43.462C41.4183 43.7408 41.0185 44.052 40.5983 44.3048C39.7309 44.778 38.9448 45.2967 38.24 45.5754C38.24 45.5754 38.0164 45.6921 37.4607 45.9839C37.3184 46.0552 37.1625 46.1459 36.9728 46.2237C36.7763 46.295 36.5594 46.3728 36.3154 46.4636C36.0715 46.5543 35.8004 46.6516 35.5022 46.7618C35.3531 46.8136 35.1973 46.872 35.0346 46.9303C34.8652 46.9692 34.689 47.0146 34.5061 47.06C33.5234 47.2999 33.5438 47.3906 33.5641 47.4749C33.5438 47.3906 33.5438 47.3906 33.5234 47.2999C33.0558 47.5397 32.2901 47.624 31.5311 47.7277C30.7788 47.8639 30.0063 47.8379 29.4913 47.9157C29.4845 47.825 29.4845 47.825 29.4845 47.7407C28.4748 47.9287 27.4515 47.812 26.435 47.7731C25.9267 47.7407 25.432 47.6175 24.9237 47.5592C24.4223 47.4879 23.914 47.4295 23.4261 47.3063C23.4464 47.2221 23.4464 47.2221 23.4667 47.1313C22.9788 47.0081 22.4909 46.885 22.125 46.7942C21.7658 46.6905 21.5422 46.5608 21.5557 46.5284C21.5828 46.4441 21.5828 46.4441 21.6167 46.3599C21.1694 46.1394 20.4443 45.9514 19.8751 45.7181C19.3126 45.4652 18.8586 45.2578 18.906 45.18C18.8653 45.2578 18.8653 45.2578 18.8247 45.3356C18.6011 45.2318 18.3774 45.1281 18.1606 45.0309C17.9573 44.9077 17.754 44.791 17.5507 44.6678C17.1508 44.4345 16.7578 44.2011 16.3783 43.9807C16.0259 43.7214 15.6803 43.4685 15.3482 43.2157C15.0162 42.9694 14.6773 42.736 14.3927 42.4572C13.8167 41.9127 13.2068 41.4329 12.7392 40.856C12.4884 40.5772 12.2445 40.3049 12.0005 40.0326C11.7498 39.7669 11.5668 39.4492 11.3432 39.164C11.0789 38.762 10.7468 38.399 10.5164 37.9582C10.2657 37.5368 10.0149 37.1024 9.75741 36.6681C9.52022 36.2272 9.3237 35.754 9.09329 35.2937C8.84933 34.8399 8.67991 34.3537 8.51049 33.861C8.10389 32.8951 7.89381 31.8578 7.61596 30.8271C7.53464 30.302 7.45332 29.7704 7.36522 29.2388C7.31101 28.973 7.29068 28.7072 7.2839 28.4349L7.23646 27.6181C7.15514 25.4464 7.31779 23.2098 7.96835 21.1029C8.58504 18.9895 9.53378 16.9798 10.74 15.1776C11.3364 14.4256 11.7904 13.5375 11.045 14.2052C11.6075 13.4013 12.3529 12.7336 13.0102 12.0011C13.7625 11.3528 13.898 11.1389 14.0403 10.9249C14.1826 10.711 14.3114 10.4776 15.1449 9.90712C18.3164 7.41124 22.3079 5.93317 26.4079 5.51827C27.4379 5.47937 28.4748 5.3562 29.5048 5.45993C30.0199 5.49882 30.5417 5.47289 31.0499 5.55717L32.5815 5.77758C34.5942 6.17951 36.6001 6.73055 38.423 7.67056L39.121 7.98821L39.7784 8.37718C40.2121 8.64297 40.6661 8.87636 41.093 9.1616C41.913 9.7645 42.7669 10.322 43.4988 11.0222C44.2984 11.6575 44.9422 12.4289 45.647 13.1485C45.9655 13.5375 46.2637 13.9394 46.5754 14.3349C46.7245 14.5358 46.8939 14.7238 47.0362 14.9313L47.4225 15.5601C49.6453 18.8988 50.7499 22.8273 50.8787 26.7883C50.838 24.8111 50.7567 23.0542 50.2891 21.3622C49.9231 19.6508 49.2116 18.0171 48.2018 16.2732C48.2832 16.2278 48.4458 16.1436 47.8969 15.2814C46.284 12.6688 43.8241 10.2637 41.3031 8.63001C38.789 6.95745 36.2748 6.09524 34.7975 5.49882C34.2892 5.33675 33.8013 5.10337 33.0287 4.85703C32.6357 4.75978 32.1749 4.65606 31.6056 4.54585C31.321 4.50047 31.016 4.4162 30.6704 4.39675C30.3248 4.3773 29.9521 4.35785 29.5455 4.33192C30.0876 4.37082 30.6365 4.35137 31.1719 4.44213L32.7848 4.67551C32.8051 4.59123 32.8322 4.4162 32.8322 4.4162C30.6772 3.9624 28.1766 3.86516 25.6963 4.04668C23.2092 4.24764 20.7967 4.93482 18.7298 5.71924C18.7298 5.71924 18.6553 5.55717 18.6146 5.47937C17.9437 5.80351 17.2525 6.07579 16.6019 6.43883C16.3241 6.51014 16.2427 6.47772 16.3241 6.36103C16.4122 6.24434 16.6561 6.02393 17.0695 5.81C17.4761 5.57662 18.0183 5.29137 18.6688 4.96075C19.3329 4.67551 20.1123 4.39675 20.9526 4.07909C21.8132 3.83923 22.7416 3.57992 23.6972 3.37895C24.1851 3.30116 24.673 3.22985 25.1609 3.15205L25.8928 3.03536C26.1368 3.0224 26.3875 3.00943 26.6315 2.99646C27.6141 2.9446 28.5696 2.86033 29.4642 2.93812C29.9114 2.95757 30.3451 2.97053 30.7517 2.98998C31.1651 2.99646 31.5446 3.08074 31.9038 3.11964C31.9173 3.03536 31.9444 2.85384 31.9512 2.76957C31.565 2.72419 31.1787 2.63343 30.7856 2.62695L29.6133 2.5686L29.62 2.39357C33.1575 2.54915 36.3561 3.3595 39.2972 4.67551C42.2315 5.998 44.9219 7.83911 47.3209 10.3415C47.1243 10.134 46.8736 9.86822 46.6025 9.58298C46.3179 9.30422 45.9791 9.03194 45.6538 8.7467C45.3285 8.46146 44.9964 8.17621 44.6983 7.9169C44.373 7.68352 44.0748 7.46959 43.8376 7.30104C43.8918 7.22973 43.9528 7.15842 42.9973 6.47772C44.9558 7.77428 46.9278 9.53112 48.6017 11.5278C50.3094 13.5051 51.5631 15.7935 52.5322 17.8745C52.7829 18.3931 52.871 18.3672 52.749 17.7967C52.6609 17.2132 52.2272 16.1306 51.4276 14.5618C50.9464 13.8227 50.5466 13.1161 50.079 12.4938C49.5979 11.8844 49.1506 11.2944 48.683 10.724C48.1747 10.1859 47.6597 9.64781 47.1243 9.08381C46.5483 8.5587 45.9181 8.02711 45.2472 7.43718L45.3624 7.30104C45.8097 7.69649 46.3179 8.1438 46.8533 8.61704C47.3954 9.08381 47.863 9.66726 48.3848 10.1988C48.9202 10.724 49.3336 11.3398 49.7808 11.8844C49.9977 12.1631 50.2145 12.4289 50.4178 12.6882C50.6008 12.9605 50.777 13.2198 50.9464 13.4662C51.3056 13.9459 51.0481 13.4078 50.7838 12.8698C50.5398 12.3187 50.1739 11.8325 50.6008 12.2733C50.9532 12.7595 51.2581 13.2847 51.597 13.7838L52.1052 14.5358C52.2543 14.7951 52.4102 15.0545 52.5593 15.3202C52.1866 14.4969 51.6173 13.6931 51.0684 12.8309C50.8109 12.39 50.4653 11.9946 50.1468 11.5862C49.8147 11.1777 49.4962 10.7564 49.1574 10.3544C47.7139 8.79856 46.1688 7.32049 44.6779 6.24434C44.2036 5.86186 43.7495 5.44048 43.3768 5.1682C43.0109 4.88944 42.7737 4.67551 42.8211 4.59771C40.1172 3.04833 37.4743 1.99163 35.0346 1.34335C34.7297 1.25259 34.4315 1.16832 34.1401 1.07756C33.8487 0.9868 33.5438 0.947903 33.2524 0.883075C32.6696 0.759902 32.1071 0.636729 31.5582 0.520039C30.4603 0.325555 29.4167 0.208865 28.4544 0.0467949C28.1359 0.014381 27.4854 0.014381 26.6383 0.0403121C26.2113 0.0662433 25.737 0.0403121 25.2287 0.124588C24.7204 0.195899 24.1783 0.273693 23.6158 0.351486C23.338 0.396866 23.0534 0.435762 22.762 0.481142C22.4773 0.552453 22.1927 0.623763 21.9081 0.688591C21.3321 0.831213 20.7561 0.980317 20.1868 1.12294C19.6311 1.30446 19.089 1.50542 18.5739 1.68694C18.0589 1.86846 17.5507 2.01756 17.1237 2.2315Z" fill="#A0A0A0"/>
<path d="M36.0658 17.7109H20.852C17.5653 17.7109 14.902 20.2587 14.902 23.4028V30.1773C14.902 33.3215 17.5653 35.8692 20.852 35.8692H36.059C39.3457 35.8692 42.009 33.3215 42.009 30.1773V23.4028C42.0158 20.2587 39.3525 17.7109 36.0658 17.7109ZM33.0705 27.2925L26.2531 30.5209C25.982 30.6571 25.0739 30.4755 25.0739 30.1838V23.5584C25.0739 23.2667 25.9888 23.0787 26.2598 23.2278L32.7858 26.6248C33.0569 26.7739 33.3415 27.1499 33.0705 27.2925Z" fill="#A0A0A0"/>
</svg>
